<svg width="460" height="477" viewBox="0 0 460 477" fill="none" xmlns="http://www.w3.org/2000/svg">
<path d="M285.544 258.368C286.113 252.959 289.674 248.119 297.791 241.144C289.958 247.834 286.398 252.532 285.686 257.798C286.683 252.816 290.671 247.265 297.934 241.429C322.144 222.071 373.983 207.837 413.717 209.403C412.293 202.855 410.584 196.165 408.305 189.617C370.28 193.603 319.723 212.534 295.37 231.892C289.958 236.447 280.702 244.276 282.838 251.962L282.98 252.247V252.389L283.835 254.809C283.835 254.809 283.835 254.809 283.835 254.951C284.262 256.66 284.832 258.795 285.401 260.645C285.401 260.787 285.401 260.787 285.544 260.93C285.686 261.499 285.828 262.211 285.971 262.78C285.971 262.638 285.971 262.495 285.971 262.353C285.401 260.787 285.401 259.506 285.544 258.368ZM412.435 208.691C369.996 208.264 323.853 221.359 297.791 241.002C323.996 221.359 369.996 208.264 412.435 208.691C411.011 202.57 409.444 196.45 407.308 190.329C409.444 196.45 411.153 202.57 412.435 208.691Z" fill="url(#paint0_radial_1_12)"/>
<path d="M285.685 257.656C285.685 257.799 285.685 257.941 285.685 258.084C285.542 257.941 285.542 257.799 285.685 257.656Z" fill="url(#paint1_radial_1_12)"/>
<path d="M268.161 222.782C267.164 221.359 266.167 219.793 265.312 218.654C266.167 219.935 267.164 221.359 268.161 222.782Z" fill="url(#paint2_radial_1_12)"/>
<path d="M250.797 201.574L251.082 201.859C251.224 202.001 251.509 202.001 251.936 202.001C251.509 202.001 251.224 201.859 251.082 201.859C251.082 201.859 251.082 201.859 250.939 201.859L252.506 203.425C254.072 205.133 255.924 207.125 257.633 208.976C258.202 209.545 258.63 210.115 259.057 210.684C259.199 210.969 259.484 211.111 259.627 211.396C259.911 211.68 265.466 207.41 276.432 198.727C300.642 179.369 342.512 145.065 369.856 121.721C365.156 116.17 360.314 110.761 355.187 105.637C331.973 133.393 293.521 171.54 269.311 190.756C258.487 199.581 252.221 203.14 250.797 201.574ZM259.484 211.111C259.769 211.396 265.323 207.268 276.432 198.443C265.323 207.268 259.769 211.396 259.484 211.111ZM369.001 121.864C341.8 145.207 300.5 179.369 276.432 198.443C300.5 179.369 341.8 145.207 369.001 121.864C364.586 116.597 360.029 111.615 355.329 106.918C354.332 108.057 353.335 109.338 352.196 110.476C353.193 109.195 354.332 108.057 355.329 106.918C360.029 111.615 364.586 116.597 369.001 121.864Z" fill="url(#paint3_radial_1_12)"/>
<path d="M235.266 188.479C235.408 188.621 235.55 188.763 235.835 188.906C235.693 188.906 235.693 188.763 235.55 188.763L241.247 193.034L244.807 196.023C245.235 196.45 245.804 196.592 246.516 196.592C245.804 196.592 245.235 196.307 244.807 196.023L245.092 196.307C247.371 198.3 254.064 195.169 264.888 186.628C262.324 184.351 259.619 182.216 256.913 180.365C246.232 188.621 238.968 191.183 235.266 188.479ZM238.826 189.76C242.956 189.76 249.08 186.771 256.913 180.508C249.08 186.628 242.956 189.617 238.826 189.76Z" fill="url(#paint4_radial_1_12)"/>
<path d="M228.859 184.351C233.416 187.055 240.964 184.778 251.218 176.665C251.36 176.665 251.36 176.807 251.502 176.807C275.713 157.449 305.762 112.754 318.58 76.7417C312.741 73.1831 306.902 69.9093 300.92 67.0625C293.23 105.779 267.168 152.751 242.958 172.11C243.1 172.11 243.1 172.252 243.242 172.252C243.1 172.252 243.1 172.11 242.958 172.11C233.273 179.796 225.156 181.931 219.602 179.369C219.744 179.511 219.886 179.511 220.029 179.654C220.598 179.938 221.311 180.223 222.023 180.365C221.311 180.223 220.598 179.938 220.029 179.654H219.886C220.171 179.796 220.598 179.938 220.883 180.081C222.592 180.935 224.301 181.931 226.153 182.928C224.871 182.216 223.589 181.504 222.45 180.935C223.732 181.647 225.013 182.358 226.437 183.07C226.437 183.07 226.295 183.07 226.295 182.928C227.007 183.355 227.862 183.782 228.431 184.209C228.431 184.209 228.431 184.209 228.289 184.209C228.431 184.066 228.716 184.209 228.859 184.351ZM301.205 68.3436C293.8 103.217 271.868 144.496 249.936 166.274C272.01 144.496 293.942 103.217 301.205 68.3436Z" fill="url(#paint5_radial_1_12)"/>
<path d="M251.637 176.806C251.495 176.806 251.495 176.664 251.352 176.664C241.099 184.777 233.408 187.197 228.993 184.35C228.708 184.208 228.566 184.066 228.281 183.923C228.566 184.066 228.851 184.35 229.278 184.493C233.551 187.34 241.241 184.92 251.637 176.806Z" fill="url(#paint6_radial_1_12)"/>
<path d="M378.249 333.38C380.812 331.245 383.376 329.11 385.654 326.69C353.896 291.817 308.466 279.291 284.255 298.506C283.258 299.361 282.261 300.215 281.264 301.069C280.979 301.353 280.837 301.496 280.552 301.78L280.125 302.065C280.125 302.065 280.125 302.065 280.267 302.065L280.125 302.207C304.763 285.411 345.636 300.642 372.979 337.365C374.688 336.084 376.54 334.803 378.249 333.38C377.964 333.095 377.822 332.811 377.537 332.526C377.822 332.811 377.964 333.095 378.249 333.38ZM375.116 329.679C375.116 329.537 375.116 329.679 375.116 329.679C374.973 329.537 374.973 329.537 375.116 329.679C375.116 329.679 375.116 329.537 375.116 329.679ZM376.54 331.387C376.397 331.245 376.54 331.245 376.54 331.387C376.397 331.245 376.397 331.245 376.54 331.387C376.54 331.245 376.397 331.245 376.54 331.387ZM373.834 328.113C373.691 328.113 373.691 328.113 373.834 328.113C373.691 328.113 373.691 328.113 373.834 328.113C373.691 328.113 373.691 328.113 373.834 328.113C373.691 328.113 373.691 328.113 373.834 328.113ZM370.986 325.124C370.843 325.124 370.843 325.124 370.986 325.124C370.843 324.982 370.843 324.982 370.986 325.124C370.843 325.124 370.843 325.124 370.986 325.124ZM372.695 336.227C348.627 304.627 314.589 289.397 290.094 297.368C314.447 289.254 348.627 304.627 372.695 336.227C373.122 335.942 373.549 335.657 373.834 335.373C373.407 335.657 373.122 335.942 372.695 336.227Z" fill="url(#paint7_radial_1_12)"/>
<path d="M402.038 305.625C365.722 276.729 316.589 269.043 292.236 288.259V288.401C288.961 290.963 286.255 294.095 284.261 297.369C283.976 297.796 283.834 298.08 283.549 298.507C283.122 299.077 282.695 299.789 282.267 300.358L282.125 300.5C282.125 300.5 282.125 300.358 282.267 300.358C282.695 299.931 283.122 299.362 283.549 298.935C284.831 297.511 286.255 296.088 287.822 294.807C286.255 296.088 284.831 297.369 283.549 298.935C284.831 297.511 286.255 296.23 287.822 294.949C287.822 294.949 287.822 294.807 287.964 294.807C312.317 275.591 359.171 286.551 392.924 319.147C396.057 315.019 399.19 310.464 402.038 305.625ZM327.555 278.01C313.599 278.01 301.209 281.427 292.094 288.544C301.066 281.284 313.599 278.01 327.555 278.01ZM295.085 290.109C293.376 290.963 291.667 291.96 290.1 292.956C291.667 291.96 293.376 290.963 295.085 290.109C320.435 277.726 361.45 289.113 392.069 318.008C361.45 289.113 320.435 277.726 295.085 290.109Z" fill="url(#paint8_radial_1_12)"/>
<path d="M412.439 280.428C373.132 258.793 321.578 256.8 297.225 276.016C297.225 276.158 297.225 276.158 297.083 276.3C297.083 276.158 297.083 276.158 297.225 276.016C290.817 281.709 288.538 284.556 285.69 292.385L285.405 293.524C285.12 294.378 284.693 295.659 284.266 296.513C284.408 296.228 284.55 295.943 284.693 295.801C284.55 296.086 284.55 296.228 284.408 296.513C285.263 294.52 286.402 292.67 287.684 290.819C289.535 288.257 291.671 285.98 294.377 283.844V283.702C294.377 283.702 294.377 283.702 294.519 283.702C294.519 283.702 294.519 283.844 294.377 283.844C318.588 264.486 368.86 270.18 406.6 296.37C409.021 291.389 410.872 285.98 412.439 280.428ZM391.361 286.691C372.563 277.154 352.197 272.03 334.111 272.03C352.197 272.173 372.563 277.154 391.361 286.691C393.925 287.972 396.346 289.396 398.767 290.819C396.346 289.396 393.925 287.972 391.361 286.691Z" fill="url(#paint9_radial_1_12)"/>
<path d="M417.141 251.961C376.411 238.297 323.86 242.852 299.649 262.067C291.816 268.33 287.829 275.305 287.401 282.422C287.259 283.703 287.117 285.554 286.974 286.977L286.547 289.112C286.689 288.685 286.689 288.258 286.832 287.831L286.689 288.97C287.259 286.55 287.971 284.415 288.826 282.565C288.968 282.28 289.11 281.995 289.253 281.568C291.247 277.725 294.38 274.024 298.51 270.75C322.72 251.392 374.844 250.965 415.005 269.754C416.144 264.06 416.856 258.082 417.141 251.961ZM367.866 244.56C340.664 244.275 314.745 250.538 299.649 262.495C314.603 250.396 340.664 244.275 367.866 244.56ZM296.089 265.626C288.826 272.743 287.971 278.437 287.544 282.707C287.971 278.437 288.826 272.743 296.089 265.626ZM354.336 255.805C374.132 256.089 395.352 260.359 414.15 268.9C395.352 260.502 374.132 256.089 354.336 255.805Z" fill="url(#paint10_radial_1_12)"/>
<path d="M415.706 221.358C375.403 216.376 323.137 227.906 298.926 247.264C289.669 254.666 285.824 262.068 286.678 268.758C286.821 270.181 286.963 271.889 287.106 273.597C287.248 274.736 287.248 275.875 287.391 276.871C287.391 277.156 287.391 277.44 287.391 277.725C287.391 277.583 287.391 277.583 287.391 277.44C287.533 274.878 287.96 272.743 288.53 270.75C289.669 267.192 291.521 264.203 294.369 261.214C291.521 264.203 289.669 267.192 288.53 270.75C290.239 265.911 293.942 261.071 299.496 256.659C323.706 237.3 376.4 230.183 417.13 240.574C417.273 234.169 416.703 227.906 415.706 221.358ZM414.852 221.785C415.706 227.906 416.276 233.742 416.276 239.578C416.276 233.884 415.706 227.906 414.852 221.785C408.585 221.074 402.034 220.647 395.341 220.647C402.034 220.789 408.585 221.074 414.852 221.785ZM299.638 256.232C319.861 240.29 359.452 232.461 395.626 236.162C359.452 232.461 319.861 240.29 299.638 256.232Z" fill="url(#paint11_radial_1_12)"/>
<path d="M288.392 216.091C278.993 223.778 273.438 229.329 274.435 233.172C275.575 235.45 277.284 238.581 278.281 241.001L279.989 244.844C278.993 240.574 280.844 235.592 292.949 225.771C292.949 225.628 292.807 225.628 292.807 225.486C292.807 225.628 292.949 225.628 292.949 225.771C317.16 206.412 366.72 184.777 403.605 177.233C400.9 170.543 397.767 163.995 394.064 157.447C360.027 170.543 312.602 196.876 288.392 216.091ZM329.692 189.474C313.599 198.726 298.931 208.12 288.534 216.376C298.931 208.12 313.599 198.584 329.692 189.474ZM278.423 241.001C277.284 238.724 275.859 235.734 274.72 233.599C275.859 235.734 277.284 238.724 278.423 241.001L279.989 244.56L278.423 241.001ZM297.649 221.785C299.358 220.504 301.067 219.365 302.918 218.084C326.844 202.427 363.587 186.485 394.349 178.656C363.587 186.485 326.844 202.427 302.918 218.084C301.067 219.365 299.358 220.646 297.649 221.785Z" fill="url(#paint12_radial_1_12)"/>
<path d="M280.699 203.994C269.733 212.819 264.464 217.516 264.891 218.085C264.891 218.228 265.034 218.37 265.176 218.37C265.176 218.512 265.318 218.512 265.318 218.655C266.173 219.936 267.17 221.359 268.167 222.925C268.167 222.925 268.167 222.925 268.167 222.783C269.591 224.918 271.015 227.195 272.297 229.188V229.046C272.297 229.188 272.439 229.33 272.439 229.33C271.157 227.195 275.857 221.644 286.681 212.961C310.891 193.603 357.461 165.989 390.643 151.043C386.941 144.638 382.811 138.375 378.538 132.396C348.773 152.751 305.052 184.635 280.699 203.994ZM378.111 133.535C348.346 153.605 304.91 185.062 280.984 204.278C282.978 206.983 284.829 209.83 286.681 212.819C284.972 209.83 283.12 206.983 280.984 204.278C305.052 185.205 348.346 153.605 378.111 133.535ZM265.176 218.228C265.461 217.089 270.588 212.534 280.984 204.278C281.981 205.559 282.835 206.983 283.832 208.406C282.978 206.983 281.981 205.702 280.984 204.278C270.588 212.534 265.318 217.089 265.176 218.228Z" fill="url(#paint13_radial_1_12)"/>
<path d="M256.766 180.222C259.472 182.214 262.177 184.207 264.741 186.485C288.951 167.126 325.267 126.986 345.632 96.6678C340.221 91.9706 334.809 87.7004 329.112 83.7148C313.447 117.734 280.976 160.863 256.766 180.222ZM344.778 97.0948C324.413 127.413 288.667 167.269 264.598 186.342C288.667 167.126 324.413 127.413 344.778 97.0948C339.793 92.8246 334.666 88.6967 329.397 84.9959C334.524 88.6967 339.793 92.6823 344.778 97.0948Z" fill="url(#paint14_radial_1_12)"/>
<path d="M289.813 62.2224C283.689 59.945 277.565 57.9522 271.584 56.2441C272.154 98.0922 252.928 147.484 228.717 166.843C228.86 166.843 228.86 166.843 229.002 166.985C253.07 147.769 272.296 98.9463 272.154 57.5252C272.296 99.0886 253.07 147.911 229.002 166.985C228.86 166.985 228.86 166.985 228.717 166.843C220.172 173.533 212.197 175.81 205.219 173.96L206.5 174.244C206.073 174.102 205.788 174.102 205.361 173.96L206.928 174.387C208.922 174.956 211.485 175.952 213.479 176.664C214.333 176.949 215.045 177.233 215.9 177.376C221.739 178.657 229.144 176.237 237.404 169.689C261.9 150.331 285.256 102.22 289.813 62.2224ZM210.773 174.671C209.349 174.671 208.067 174.671 206.785 174.387C208.067 174.529 209.491 174.671 210.773 174.671ZM218.606 177.661C224.017 177.803 230.284 175.098 237.262 169.689C230.284 175.098 224.017 177.803 218.606 177.661ZM237.262 169.547H237.404C237.404 169.689 237.404 169.547 237.262 169.547Z" fill="url(#paint15_radial_1_12)"/>
<path d="M214.338 164.565C214.338 164.423 214.338 164.423 214.338 164.565C207.929 169.12 202.944 172.109 193.688 172.109C194.4 172.109 195.254 172.252 196.109 172.252C195.396 172.109 194.542 172.109 193.83 172.109C194.542 172.109 195.254 172.252 196.109 172.252C196.678 172.252 197.248 172.394 197.818 172.394L200.381 172.821C201.663 172.963 202.944 173.106 204.084 173.106C202.944 173.106 201.663 172.963 200.381 172.821L197.818 172.394L200.523 172.821C207.502 174.102 215.335 171.825 223.167 165.562C247.378 146.203 264.04 96.0994 260.338 53.682C254.214 52.5433 248.09 51.8316 242.109 51.5469C250.938 94.676 238.548 145.207 214.338 164.565ZM195.112 171.967C201.52 171.967 208.071 169.547 214.48 164.423C208.071 169.689 201.52 171.967 195.112 171.967ZM258.913 87.559C259.91 80.5843 260.338 73.6096 260.338 66.635C260.338 73.6096 259.768 80.5843 258.913 87.559ZM242.821 52.5433C251.223 95.5301 238.548 145.349 214.48 164.423C238.691 145.349 251.223 95.5301 242.821 52.5433Z" fill="url(#paint16_radial_1_12)"/>
<path d="M213.476 53.3971C230.423 95.9568 224.584 146.061 200.374 165.419C200.231 165.419 200.231 165.561 200.089 165.561C199.519 165.846 198.949 166.273 198.522 166.7C198.095 166.985 197.81 167.269 197.525 167.554C197.81 167.269 198.237 166.985 198.522 166.7C195.674 168.693 192.683 170.259 189.55 171.255C188.553 171.54 187.556 171.824 186.559 172.109C186.275 172.251 185.847 172.251 185.562 172.394C185.705 172.394 185.705 172.394 185.847 172.394H185.705C185.99 172.394 186.417 172.251 186.702 172.251C187.699 172.109 188.838 171.967 189.835 171.967C189.977 171.967 189.977 171.967 190.12 171.967C196.528 171.682 202.937 169.262 208.919 164.423C233.129 145.064 243.098 94.5334 230.993 51.4043C225.154 51.689 219.315 52.4007 213.476 53.3971ZM214.473 54.3934C216.609 53.9664 218.603 53.6817 220.739 53.3971C218.603 53.6817 216.466 53.9664 214.473 54.3934C230.85 96.8109 224.727 146.345 200.658 165.419C224.727 146.203 230.85 96.8109 214.473 54.3934Z" fill="url(#paint17_radial_1_12)"/>
<path d="M391.074 151.043C409.446 142.787 419.699 140.225 421.266 142.93C421.123 142.645 420.839 142.36 420.696 141.933C420.839 142.076 420.981 142.218 420.981 142.36C416.424 134.816 409.873 124.995 404.888 117.593C404.888 117.593 404.888 117.593 404.746 117.593C404.746 117.593 404.746 117.593 404.603 117.593C404.603 117.593 404.603 117.593 404.746 117.593C404.603 117.308 404.461 117.166 404.319 116.881C403.891 116.17 395.204 121.294 378.969 132.397C383.241 138.233 387.229 144.496 391.074 151.043ZM390.932 150.616C404.603 144.353 413.86 141.364 418.275 141.364C413.86 141.364 404.603 144.353 390.932 150.616Z" fill="url(#paint18_radial_1_12)"/>
<path d="M369.992 121.008C370.135 121.15 370.277 121.292 370.419 121.435C385.373 108.767 392.779 102.077 392.636 101.792C392.067 101.222 391.639 100.653 391.07 99.9414C391.354 100.368 391.639 100.653 392.066 101.08C392.351 101.365 384.803 108.197 369.992 121.008Z" fill="url(#paint19_radial_1_12)"/>
<path d="M355.609 105.351C356.464 106.205 357.318 107.059 358.173 107.913C358.6 108.34 359.027 108.767 359.455 109.194C360.024 109.763 360.451 110.333 361.021 110.76C364.012 114.034 367.003 117.307 369.993 120.866C384.804 108.055 392.21 101.365 391.925 100.938C391.64 100.511 391.355 100.227 390.928 99.7995C389.219 97.6644 387.225 95.5293 385.089 93.2518C381.956 89.8357 378.681 86.2772 375.975 83.4304L372.414 79.8719L375.975 83.4304C378.681 86.4195 381.814 89.8357 384.947 93.2518C381.814 89.8357 378.681 86.2772 375.975 83.4304L371.702 79.1602C373.838 81.1529 368.427 90.1204 355.609 105.351Z" fill="url(#paint20_radial_1_12)"/>
<path d="M345.928 96.3825C357.321 79.5864 361.309 69.1955 358.318 66.7757L358.033 66.491C357.891 66.3487 357.891 66.2064 357.749 66.2064L349.488 59.2317L343.507 54.6768C341.656 53.2534 339.662 51.6877 337.811 50.4066L335.817 48.8408C335.959 48.9832 336.102 48.9832 336.102 49.1255C340.374 52.8264 338.665 64.783 329.978 83.5719C335.247 87.4151 340.516 91.4006 345.501 95.8132C340.516 91.4006 335.247 87.2727 329.978 83.5719C338.807 64.783 340.516 52.8264 336.102 49.1255C335.674 48.8408 335.389 48.5562 334.962 48.2715C339.804 51.6877 338.238 63.7866 329.266 83.2872C335.105 87.2727 340.659 91.6853 345.928 96.3825Z" fill="url(#paint21_radial_1_12)"/>
<path d="M301.07 66.4916C307.052 69.3385 313.033 72.6123 318.872 76.1708C326.135 55.2468 326.135 42.0091 320.011 38.1659C319.869 38.1659 319.869 38.0236 319.727 38.0236C319.584 37.8812 319.442 37.7389 319.299 37.7389C315.739 35.6038 311.467 33.3263 307.194 30.9066C305.628 30.0525 304.061 29.1985 302.352 28.3444C301.782 28.0597 301.355 27.7751 300.785 27.4904C298.649 26.3517 296.655 25.3553 294.946 24.3589C295.231 24.5012 295.516 24.6436 295.943 24.9283C297.937 26.067 299.504 27.9174 300.785 30.3372C301.64 31.9029 302.21 33.7534 302.779 35.7461C302.21 33.7534 301.64 31.9029 300.785 30.3372C299.504 27.9174 297.937 26.067 295.943 24.9283C295.374 24.6436 294.804 24.3589 294.234 24.0742C302.494 28.2021 305.628 43.1478 301.07 66.4916ZM301.64 66.7763C304.488 68.1998 307.194 69.6231 310.042 71.1889C307.194 69.6231 304.488 68.1998 301.64 66.7763ZM318.302 75.8861C316.878 75.0321 315.597 74.178 314.172 73.4663C315.597 74.178 316.878 75.0321 318.302 75.8861C321.863 65.4953 323.714 56.8125 323.714 50.4072C323.572 56.8125 321.863 65.4953 318.302 75.8861ZM303.776 45.8523C303.776 46.4217 303.776 46.991 303.776 47.5604C303.776 46.8487 303.776 46.4217 303.776 45.8523C303.776 43.1478 303.491 40.728 303.064 38.4506C303.491 40.728 303.776 43.1478 303.776 45.8523Z" fill="url(#paint22_radial_1_12)"/>
<path d="M271.584 55.674C277.708 57.2398 283.832 59.3749 289.955 61.7947C292.661 37.3121 287.677 21.5123 277.85 17.2421C287.25 21.9394 291.949 37.7391 289.386 61.51C291.949 37.5968 287.107 21.9394 277.85 17.2421C277.423 16.9574 276.996 16.8151 276.568 16.6728C272.296 15.107 266.884 13.2566 261.9 11.5485C259.763 10.8368 257.627 10.1251 255.776 9.55575L250.222 7.99001C250.506 8.13235 250.791 8.13234 251.076 8.27468L249.367 7.84766C262.185 10.9791 271.014 28.3447 271.584 55.674Z" fill="url(#paint23_radial_1_12)"/>
<path d="M255.781 9.41406C257.633 9.98342 259.769 10.6951 261.763 11.4068C259.626 10.6951 257.633 9.98342 255.781 9.41406Z" fill="url(#paint24_radial_1_12)"/>
<path d="M201.797 0.160156C226.292 3.00696 237.258 29.3399 241.958 50.9757C248.082 51.2603 254.063 51.972 260.187 53.1108C257.481 24.358 246.088 6.28079 231.419 3.71867L230.707 3.57632H230.565L220.88 2.01057C216.038 1.44121 209.63 0.871854 204.36 0.444833C203.791 0.444833 203.221 0.302494 202.509 0.302494C203.079 0.302494 203.648 0.444833 204.36 0.444833C204.503 0.444833 204.645 0.444833 204.788 0.444833C203.791 0.302492 202.794 0.160156 201.797 0.160156ZM209.202 1.29887C224.014 5.85376 236.973 23.6463 242.67 50.8333C236.831 23.6463 224.014 5.85376 209.202 1.29887Z" fill="url(#paint25_radial_1_12)"/>
<path d="M154.101 3.29321C154.244 3.29321 154.386 3.29321 154.529 3.15087C175.891 0.446403 199.674 19.3777 213.204 52.8277C214.058 52.6853 214.912 52.543 215.767 52.4006C215.055 52.543 214.485 52.543 213.773 52.6853C193.408 5.57065 167.204 2.01215 156.238 3.00853C167.346 2.15449 193.408 5.71299 213.773 52.6853C214.485 52.543 215.055 52.4006 215.767 52.4006C216.479 52.2583 217.049 52.116 217.761 52.116C218.046 52.116 218.33 51.9736 218.615 51.9736C222.46 51.4043 226.306 51.1196 230.151 50.8349C230.293 50.8349 230.578 50.8349 230.721 50.8349C221.464 18.2389 202.238 -0.692327 183.012 0.0193754C182.727 0.0193754 182.584 0.0193754 182.3 0.0193754C182.157 0.0193754 182.157 0.0193754 182.015 0.0193754C181.018 0.161716 180.021 0.161722 178.882 0.304063C162.789 1.58513 161.792 1.72746 152.25 3.57789C152.962 3.43554 153.532 3.43555 154.101 3.29321ZM155.241 3.15087C157.947 2.72385 160.937 2.29682 163.928 2.01214C160.937 2.29682 157.947 2.72385 155.241 3.15087Z" fill="url(#paint26_radial_1_12)"/>
<path d="M186.559 61.9375C187.983 61.2257 189.265 60.6564 190.689 59.9447C189.55 60.5141 188.268 61.0834 187.129 61.6528C188.268 61.0834 189.55 60.5141 190.689 59.9447C194.534 58.2366 198.379 56.8132 202.367 55.5321C187.129 24.3596 162.918 6.14002 141.556 6.99406C162.918 6.14002 187.129 24.3596 202.367 55.5321C198.379 56.8132 194.392 58.2366 190.689 59.9447C194.677 58.0943 198.807 56.6709 202.937 55.3898C185.989 20.3741 157.934 1.8698 134.862 7.8481C134.578 7.8481 134.293 7.99045 134.008 8.13279C133.866 8.13279 133.723 8.13279 133.581 8.27513C133.296 8.41747 133.011 8.41746 132.584 8.5598C127.742 10.1255 121.903 12.403 116.633 14.3958C115.352 14.9651 113.928 15.3921 112.788 15.9615C112.219 16.2462 111.649 16.3885 111.079 16.6732L104.386 19.8047C104.813 19.6624 105.098 19.52 105.525 19.3777C109.37 17.6696 113.358 16.5309 117.63 16.2462C113.358 16.6732 109.37 17.6696 105.525 19.3777L103.531 20.2317C128.027 7.84811 163.63 25.0713 186.559 61.9375Z" fill="url(#paint27_radial_1_12)"/>
<path d="M63.9505 47.2773L63.8081 47.4197C63.096 47.989 62.3839 48.5584 61.6719 49.2701L63.9505 47.2773Z" fill="url(#paint28_radial_1_12)"/>
<path d="M64.0822 46.991C73.0543 40.0163 84.8747 37.4542 97.8345 38.7352C85.0171 37.4542 73.1967 40.0163 64.0822 46.991L62.5156 48.4144C62.658 48.272 62.9429 48.1297 63.0853 47.9874C87.5806 28.6291 132.868 41.8667 164.057 77.5942C165.909 75.8861 167.76 74.178 169.754 72.6123C167.903 74.0357 166.194 75.6014 164.485 77.1671C153.803 64.9259 141.413 55.2467 128.738 48.6991C125.605 47.1333 122.472 45.7099 119.339 44.4289C122.472 45.7099 125.605 47.1333 128.738 48.6991C141.413 55.2467 153.661 64.9259 164.485 77.1671C166.194 75.6014 167.903 74.0357 169.754 72.6123C171.605 71.1889 173.457 69.7655 175.308 68.4844L175.45 68.342C175.878 68.0574 176.305 67.7727 176.875 67.3457C176.447 67.6303 176.02 67.915 175.45 68.342C176.02 67.915 176.59 67.488 177.302 67.2033C150.813 30.0525 110.794 14.1104 86.0141 30.1948C85.8716 30.3372 85.7292 30.4795 85.5868 30.4795C85.4444 30.4795 85.302 30.6218 85.302 30.6218C83.7354 31.6182 82.0264 32.8993 80.3175 34.1803C79.7478 34.6074 79.0357 35.1767 78.3237 35.6038C76.045 37.3118 73.624 38.8776 71.7726 40.4433L63.9398 47.1333C63.9398 47.1333 64.0822 47.1333 64.0822 46.991ZM105.525 40.0163C109.37 40.8704 113.215 42.0091 117.203 43.4325C113.215 42.0091 109.37 40.8704 105.525 40.0163ZM98.5465 38.8776C100.398 39.0199 102.249 39.4469 104.243 39.7316C102.249 39.4469 100.398 39.1623 98.5465 38.8776Z" fill="url(#paint29_radial_1_12)"/>
<path d="M62.5215 48.4141C61.9518 48.8411 61.3822 49.4104 60.8125 49.8375L62.5215 48.4141Z" fill="url(#paint30_radial_1_12)"/>
<path d="M175.32 68.4844C173.468 69.7654 171.617 71.0465 169.766 72.6122C171.617 71.1888 173.468 69.7654 175.32 68.4844Z" fill="url(#paint31_radial_1_12)"/>
<path d="M30.1862 87.2733C32.4648 84.1418 35.0283 81.4373 38.019 79.0175C46.8487 72.0429 58.5267 68.4844 71.6289 68.342C58.3843 68.4844 46.8487 72.0429 38.019 79.0175C62.6567 60.0863 111.363 68.6267 147.109 98.2335C147.251 98.0912 147.251 97.9488 147.394 97.8065C149.245 94.8173 151.239 91.8282 153.517 88.9814C154.514 87.7003 155.511 86.4192 156.508 85.1382C131.443 60.0863 98.8301 47.2756 73.7651 50.6918C98.8301 47.2756 131.443 60.0863 156.508 85.1382C156.65 84.9958 156.793 84.8535 156.793 84.7112C123.468 51.1188 76.6134 39.5893 52.1181 58.9476C50.4091 60.2286 48.9849 61.652 47.7032 63.2178C47.276 63.6448 46.9911 64.0718 46.5639 64.4988L44.4277 67.061C39.728 73.1816 33.7466 81.4373 29.4741 87.8426C29.6165 87.7003 29.6165 87.7003 29.7589 87.558C29.4741 87.985 29.3317 88.2697 29.0469 88.6967C29.6165 88.2697 29.9014 87.7003 30.1862 87.2733ZM67.0716 52.1152C69.2078 51.5459 71.2016 51.1188 73.4803 50.8341C71.2016 51.1188 69.0654 51.5459 67.0716 52.1152Z" fill="url(#paint32_radial_1_12)"/>
<path d="M20.782 117.309C45.2773 97.9503 96.9739 100.655 136.138 123.287C136.138 123.144 136.28 123.002 136.28 122.86C137.847 117.736 139.841 112.611 142.119 107.914C125.742 96.0998 106.801 88.1288 88.7138 84.7126C106.801 88.1288 125.599 96.0998 142.119 107.914C142.262 107.772 142.262 107.629 142.404 107.345C104.949 80.1577 54.6767 73.7524 30.1814 93.1107C25.7665 96.5268 22.491 100.655 20.3548 105.21C20.2124 105.494 20.0699 105.779 20.0699 106.064C20.0699 106.064 20.0699 106.064 20.0699 106.206C19.2154 108.199 18.361 110.334 17.3641 112.469C14.8006 118.732 12.0947 125.707 10.1009 131.4L9.53125 133.393C11.2402 127.272 14.943 121.863 20.782 117.309ZM9.67366 132.254C11.5251 126.418 15.2278 121.009 20.9244 116.454C31.6055 107.914 47.556 103.786 65.3578 103.502C47.556 103.644 31.6055 107.914 20.9244 116.454C15.2278 121.009 11.5251 126.418 9.67366 132.254Z" fill="url(#paint33_radial_1_12)"/>
<path d="M12.8144 160.01C37.3097 140.652 90.1456 136.809 130.876 151.47C130.876 151.328 130.876 151.043 130.876 150.901C131.303 145.349 132.016 139.94 133.155 134.674C133.155 134.816 133.155 134.816 133.155 134.959C133.155 134.674 133.297 134.389 133.297 134.104C105.811 120.582 72.4862 116.312 46.4243 121.294C72.4862 116.312 105.811 120.582 133.297 134.104C133.297 134.247 133.297 134.532 133.155 134.674C133.297 134.247 133.297 133.962 133.44 133.535C93.4211 113.75 41.0125 113.465 16.6596 132.823C10.1085 137.948 6.26333 144.068 4.83918 150.616C4.69676 150.901 4.69676 151.185 4.69676 151.47L3.98469 155.74C3.41503 158.587 2.84537 161.719 2.56054 164.281L2.27571 165.704L0.851562 178.799C0.851562 178.657 0.851562 178.515 0.851562 178.515V178.799C0.851562 178.088 0.993978 177.518 1.13639 176.807C2.27571 170.401 6.12091 164.281 13.0992 158.729C17.6565 155.029 23.2107 152.039 29.6193 149.477C23.3531 152.039 17.6565 155.029 13.0992 158.729C6.12091 164.281 2.27571 170.401 1.13639 176.807L0.99398 178.23C1.70605 172.109 5.69367 165.704 12.8144 160.01Z" fill="url(#paint34_radial_1_12)"/>
<path d="M0.845538 178.656C0.845538 179.083 0.703125 179.653 0.703125 180.08L0.845538 178.656Z" fill="url(#paint35_radial_1_12)"/>
<path d="M14.0991 206.414C38.5944 187.055 91.2878 176.095 131.734 182.073C131.734 181.931 131.734 181.646 131.734 181.504C131.022 175.383 130.594 169.405 130.594 163.569C130.594 163.569 130.594 163.569 130.452 163.569C116.495 160.011 101.969 158.303 88.0123 158.16C101.969 158.303 116.353 160.011 130.452 163.569C130.452 163.427 130.452 163.142 130.452 163C70.3529 147.627 1.99381 166.131 0 198.3V201.432V201.574C0.142415 205.702 0.427242 210.399 0.854486 215.096C1.13932 218.655 1.42415 222.071 1.70898 225.345C1.70898 225.914 1.85139 226.341 1.85139 226.911C1.85139 226.911 1.85139 226.911 1.85139 226.768C1.85139 226.768 1.85139 226.768 1.85139 226.911C1.85139 226.626 1.85139 226.484 1.85139 226.199C1.42415 219.651 5.41176 212.534 14.0991 205.56C33.8947 189.902 72.4891 179.796 107.95 179.938C72.4891 179.796 33.8947 189.902 14.0991 205.56C5.26935 212.534 1.28173 219.651 1.85139 226.341C1.85139 226.911 1.99381 227.48 1.99381 228.049C1.13932 221.075 4.98452 213.673 14.0991 206.414Z" fill="url(#paint36_radial_1_12)"/>
<path d="M24.7808 254.667C49.2761 235.308 100.403 217.089 138.713 213.957C138.713 213.815 138.57 213.53 138.57 213.388C136.576 207.125 135.01 200.862 133.87 194.741C133.87 194.457 133.728 194.314 133.728 194.03C93.8519 191.467 41.5857 205.132 17.0904 224.49C7.54858 232.177 3.70338 239.436 4.8427 245.841C4.98511 246.553 5.12753 247.265 5.26994 247.977C5.12753 247.549 5.12753 247.122 4.98511 246.695C2.70648 221.501 65.9386 194.741 125.041 194.457C65.9386 194.599 2.56406 221.501 4.98511 246.695C5.12753 247.122 5.12753 247.549 5.26994 247.977C5.8396 250.396 6.40926 252.958 7.12133 255.521C8.54548 261.214 10.112 267.192 11.3938 272.032L11.9634 274.025L11.3938 272.032C10.112 267.192 8.54548 261.214 7.12133 255.521C8.54548 261.214 9.96963 267.192 11.3938 272.032L12.2483 274.879C10.6817 269.755 14.5269 262.638 24.7808 254.667Z" fill="url(#paint37_radial_1_12)"/>
<path d="M152.242 246.127C148.824 239.579 145.833 232.889 143.127 226.199C78.6136 238.583 13.8149 276.303 18.5146 292.53L18.657 292.957C18.2297 291.249 18.5146 289.256 19.6539 287.121C18.5146 289.398 18.2297 291.391 18.657 292.957C18.657 293.099 18.7994 293.242 18.7994 293.384L24.3536 306.479L30.9046 320.002C30.9046 319.859 30.7622 319.859 30.7622 319.717L31.3319 320.856C28.3412 308.757 97.1275 266.055 152.242 246.127ZM31.7591 274.168C36.3164 270.609 41.5858 266.909 47.5672 263.35C41.5858 267.051 36.174 270.609 31.7591 274.168C28.3412 276.872 25.6353 279.435 23.4991 281.712C25.4929 279.435 28.3412 276.872 31.7591 274.168ZM51.5548 261.073C50.7003 261.5 49.9882 261.927 49.1337 262.496C49.9882 262.069 50.7003 261.5 51.5548 261.073ZM31.3319 316.443C32.756 313.454 36.3164 309.468 42.4402 304.486C36.3164 309.468 32.6136 313.454 31.3319 316.443Z" fill="url(#paint38_radial_1_12)"/>
<path d="M74.0545 349.323C98.4075 329.965 141.986 297.369 171.324 276.587C171.324 276.587 171.324 276.587 171.466 276.587C167.194 271.036 163.349 265.2 159.646 259.079C159.646 259.079 159.646 259.079 159.503 259.079C159.361 258.794 159.219 258.652 159.076 258.51C126.321 274.167 79.8935 302.635 55.5406 321.994C44.7171 330.676 39.875 336.085 41.0143 338.078C41.2992 338.505 41.584 339.074 42.0112 339.501C45.1443 344.341 48.9895 350.177 52.6923 355.444C54.5437 358.006 56.2527 360.568 57.8193 362.845C57.9617 362.988 57.9617 363.13 58.1041 363.13C57.6768 362.703 62.8038 358.148 74.0545 349.323Z" fill="url(#paint39_radial_1_12)"/>
<path d="M171.611 277.013C171.469 276.871 171.326 276.728 171.326 276.586C142.131 297.368 98.5523 329.964 74.0569 349.322C62.9486 358.147 57.6792 362.702 57.9641 363.129C58.1065 363.414 58.3913 363.698 58.5337 363.841C58.2489 363.414 63.5183 358.859 74.6266 350.176C98.9795 330.818 142.558 297.937 171.611 277.013Z" fill="url(#paint40_radial_1_12)"/>
<path d="M195.107 303.632C194.964 303.49 194.822 303.347 194.68 303.205C189.838 298.508 185.138 293.526 180.581 288.402C153.949 312.457 112.506 347.9 88.1534 367.258C77.7571 375.514 72.203 379.499 71.0636 379.642C72.0605 379.499 77.7571 375.514 88.1534 367.258C112.506 347.9 153.949 312.599 180.581 288.402C180.438 288.259 180.296 288.117 180.153 287.975C153.379 311.888 111.937 347.188 87.4413 366.689C76.333 375.514 70.6364 379.499 70.3516 379.072C70.9212 379.642 71.4909 380.354 72.2029 381.065C71.7757 380.638 71.3485 380.069 71.0636 379.642C71.4909 380.069 71.9181 380.638 72.3454 381.065C73.4847 382.346 74.624 383.627 75.9057 384.908C78.6116 387.898 81.6023 391.029 84.0234 393.591L90.8593 400.424C91.0017 400.566 91.2865 400.708 91.7138 400.708C91.4289 400.708 91.1441 400.566 90.8593 400.424L84.0234 393.591C81.6023 391.029 78.754 387.898 76.0482 384.908C78.754 388.04 81.6023 391.171 84.0234 393.734L91.4289 401.135C93.1379 402.701 99.4042 399.285 110.37 390.744C134.581 370.959 172.605 331.958 195.107 303.632Z" fill="url(#paint41_radial_1_12)"/>
<path d="M221.731 325.125C221.589 324.983 221.304 324.84 221.162 324.698C206.066 359.287 174.022 402.985 149.527 422.344C144.258 426.471 139.843 429.176 136.283 430.599C139.843 429.318 144.4 426.614 149.527 422.344C173.88 402.985 206.066 359.144 221.162 324.698C216.605 321.567 212.19 318.293 207.917 314.734C208.06 314.734 208.06 314.877 208.202 314.877C207.348 314.165 206.493 313.453 205.496 312.741C206.351 313.453 207.063 314.023 207.917 314.734C206.92 314.023 206.066 313.168 205.069 312.314C185.416 343.345 149.527 384.196 125.174 403.697C114.351 412.237 107.515 415.227 105.094 413.091L105.806 413.661C106.66 414.372 108.084 414.515 109.936 413.945C108.084 414.372 106.66 414.372 105.806 413.661L108.227 415.654L110.648 417.646C110.79 417.789 111.075 417.931 111.218 418.073C113.211 419.639 115.632 421.49 117.911 423.198C121.614 426.044 125.459 428.891 128.735 431.169C132.58 433.731 139.985 431.311 150.524 423.055C174.735 403.555 206.778 359.714 221.731 325.125Z" fill="url(#paint42_radial_1_12)"/>
<path d="M250.226 341.352C247.662 340.213 245.099 338.932 242.393 337.508C239.117 335.8 235.984 334.092 232.851 332.242C221.031 368.823 191.693 414.372 167.34 433.73C164.635 435.866 162.071 437.574 159.792 438.997C162.071 437.716 164.635 435.866 167.34 433.73C191.836 414.372 221.173 368.823 232.851 332.242C232.709 332.099 232.566 332.099 232.424 331.957C220.461 368.396 190.981 413.945 166.628 433.303C156.374 441.417 148.684 443.694 143.984 440.99C144.269 441.132 144.696 441.417 144.981 441.559C144.839 441.559 144.839 441.417 144.696 441.417C148.399 443.552 152.672 445.829 156.944 448.107C161.074 450.242 165.062 452.235 168.622 454.085C168.765 454.227 169.049 454.227 169.192 454.37H169.334C170.758 454.939 172.325 455.366 173.891 455.366C172.182 455.366 170.758 454.939 169.334 454.37C169.619 454.512 169.761 454.512 170.046 454.654C175.885 457.359 183.86 455.224 193.545 447.537C217.898 428.037 243.39 380.495 250.226 341.352Z" fill="url(#paint43_radial_1_12)"/>
<path d="M168.616 453.943C165.055 452.093 161.068 450.1 156.938 447.965C161.068 450.1 165.055 452.235 168.616 453.943Z" fill="url(#paint44_radial_1_12)"/>
<path d="M279.698 351.742C279.556 351.742 279.271 351.6 279.129 351.6C280.553 393.733 261.754 443.694 237.401 463.052C230.565 468.604 224.014 471.023 218.033 470.881C224.014 471.023 230.565 468.604 237.401 463.052C261.754 443.694 280.553 393.733 279.129 351.6C279.129 351.6 279.129 351.6 279.129 351.458C273.432 350.034 267.593 348.184 261.896 346.049C261.754 345.906 261.469 345.906 261.327 345.906C257.766 386.331 234.838 435.154 210.485 454.512C201.94 461.344 194.249 463.622 188.125 462.056C189.55 462.483 191.116 462.768 192.825 462.768C191.116 462.768 189.55 462.483 188.125 462.056C187.983 462.056 187.841 461.914 187.698 461.914C187.698 461.914 187.698 461.914 187.841 461.914C187.556 461.771 187.129 461.771 186.844 461.629C187.556 461.914 188.268 462.056 188.98 462.341C190.689 463.052 192.683 463.622 194.677 464.333C197.952 465.472 201.228 466.611 204.076 467.465L214.045 470.169C214.187 470.169 214.187 470.169 214.33 470.169L214.899 470.312C221.878 472.02 229.853 469.742 238.255 463.052C262.751 443.836 281.265 393.733 279.698 351.742Z" fill="url(#paint45_radial_1_12)"/>
<path d="M263.752 476.86C266.743 476.717 269.733 476.148 272.724 475.009C304.91 463.48 320.006 404.124 309.467 355.728C308.185 355.728 306.904 355.586 305.48 355.586C305.195 355.586 305.052 355.586 304.767 355.586C304.055 355.586 303.343 355.443 302.631 355.443C301.492 355.301 300.21 355.301 299.071 355.159C296.507 354.874 293.801 354.589 291.238 354.162C295.938 397.007 279.987 447.537 255.634 466.896C247.802 473.016 240.111 475.294 233.133 474.155L235.411 474.44C234.984 474.44 234.415 474.297 233.987 474.297L239.257 475.009C240.396 475.151 241.535 475.294 242.675 475.436C248.941 476.148 256.346 476.575 262.185 477.002C262.613 477.002 263.182 477.002 263.61 477.002C263.182 477.002 262.613 477.002 262.185 477.002C256.346 476.575 248.941 476.006 242.675 475.436C249.226 476.148 257.058 477.002 263.182 477.002C263.04 477.002 263.467 476.86 263.752 476.86ZM253.356 469.031C248.086 472.589 242.817 474.297 237.833 474.44C242.817 474.297 247.944 472.589 253.356 469.031ZM253.783 468.746C253.641 468.888 253.498 469.031 253.356 469.031C253.498 468.888 253.641 468.746 253.783 468.746ZM258.483 465.045C281.554 444.406 296.365 395.583 291.523 354.162C296.365 395.583 281.696 444.406 258.483 465.045Z" fill="url(#paint46_radial_1_12)"/>
<path d="M330.261 461.202C350.768 439.993 355.041 395.726 337.809 353.023C332.112 354.305 326.273 355.016 320.291 355.443C333.394 398.715 324.137 449.673 299.784 469.031C293.945 473.728 287.821 476.148 281.555 476.433C282.979 476.29 284.261 476.148 285.542 476.006C290.669 475.151 295.796 472.732 300.638 468.889C295.796 472.732 290.669 475.009 285.542 476.006C284.545 476.148 283.548 476.29 282.552 476.433C284.688 476.148 286.966 476.006 289.387 475.721C300.923 474.582 305.623 473.87 312.316 472.162H312.459C319.01 470.597 325.134 466.753 330.261 461.202ZM309.041 460.49C326.985 437.147 332.397 393.448 320.861 355.586C326.415 355.159 331.97 354.447 337.381 353.308C331.97 354.447 326.558 355.301 320.861 355.586C332.397 393.448 326.985 437.147 309.041 460.49C307.759 462.199 306.477 463.764 305.053 465.188C306.477 463.622 307.759 462.056 309.041 460.49Z" fill="url(#paint47_radial_1_12)"/>
<path d="M364.293 343.344C362.3 344.482 360.021 345.479 357.885 346.475C354.752 347.899 351.476 349.18 348.2 350.176C369.278 391.882 366.43 441.701 342.077 461.059C339.228 463.337 336.095 465.187 332.962 466.468C333.817 466.184 334.671 465.757 335.668 465.472C338.231 464.333 340.652 462.767 343.074 460.917C360.306 447.252 366.572 418.642 361.587 388.466C366.714 418.784 360.306 447.395 343.074 460.917C340.652 462.767 338.231 464.333 335.668 465.472C334.529 466.041 333.389 466.468 332.25 466.895H332.392H332.25C335.668 465.757 339.798 464.048 343.786 462.483C344.925 462.056 346.064 461.486 347.204 461.059C347.916 460.775 348.485 460.49 349.055 460.348L360.163 454.939C360.733 454.654 361.303 454.369 361.73 454.085C363.296 453.088 365.005 452.092 366.43 450.953C390.925 431.31 389.928 383.199 364.293 343.344ZM357.315 371.242C357.885 372.951 358.312 374.659 358.739 376.367C358.454 374.801 357.885 373.093 357.315 371.242ZM358.027 346.475C360.021 345.621 362.015 344.625 364.009 343.486C376.683 363.414 383.377 385.477 383.662 404.835C383.377 385.334 376.683 363.414 364.009 343.486C362.015 344.625 360.021 345.621 358.027 346.475Z" fill="url(#paint48_radial_1_12)"/>
<path d="M332.959 466.469C332.389 466.753 331.82 466.896 331.25 467.18C331.677 466.896 332.247 466.611 332.959 466.469Z" fill="url(#paint49_radial_1_12)"/>
<path d="M385.801 327.544C383.522 329.68 381.101 331.815 378.68 333.807C377.113 335.088 375.404 336.227 373.695 337.508C401.751 375.371 405.027 421.916 380.958 441.559C380.816 441.701 380.674 441.701 380.674 441.844C380.531 441.986 380.389 441.986 380.389 442.128L388.222 436.293C390.358 434.584 392.636 432.592 395.058 430.457C397.194 428.606 399.33 426.613 401.324 424.905C401.466 424.763 401.751 424.478 401.893 424.336C402.036 424.194 402.178 424.051 402.321 423.909C402.463 423.767 402.606 423.624 402.606 423.624C423.541 403.127 416.705 360.852 386.228 327.26C386.085 327.402 385.943 327.402 385.801 327.544Z" fill="url(#paint50_radial_1_12)"/>
<path d="M380.387 442.129L378.82 443.268C379.248 442.983 379.817 442.556 380.387 442.129Z" fill="url(#paint51_radial_1_12)"/>
<path d="M379.68 442.557L377.828 443.838C378.54 443.411 379.11 442.984 379.68 442.557Z" fill="url(#paint52_radial_1_12)"/>
<path d="M373.693 337.509C375.402 336.371 377.111 335.09 378.677 333.809C376.968 335.09 375.117 336.513 373.266 337.794C401.321 375.941 404.454 422.914 379.959 442.272C379.817 442.414 379.817 442.414 379.674 442.557L380.956 441.56C405.024 422.06 401.891 375.514 373.693 337.509Z" fill="url(#paint53_radial_1_12)"/>
<path d="M402.462 306.051C402.319 306.193 402.319 306.335 402.177 306.478C415.279 317.011 424.821 328.825 430.66 340.639C424.821 328.825 415.279 317.011 402.177 306.478C399.614 311.033 396.623 315.303 393.347 319.288C393.205 319.431 393.205 319.573 393.062 319.715C422.827 348.753 432.227 385.477 417.415 406.97C417.131 407.397 416.846 407.682 416.561 408.109C416.276 408.536 415.991 408.963 415.564 409.39C415.849 409.105 415.991 408.821 416.134 408.536C416.134 408.536 416.134 408.678 415.991 408.678C415.991 408.678 415.991 408.678 415.991 408.536C415.991 408.536 415.991 408.536 415.991 408.678C416.134 408.536 416.134 408.394 416.276 408.251C416.276 408.251 416.276 408.251 416.276 408.394C416.561 407.966 416.846 407.539 417.131 407.255C417.273 407.112 417.415 406.828 417.558 406.685C427.1 394.159 427.812 393.021 432.939 384.196C445.186 363.129 433.366 330.818 402.462 306.051ZM432.511 384.907C428.381 391.455 422.685 399.568 417.843 406.258C422.685 399.568 428.381 391.455 432.511 384.907C435.645 379.641 437.211 373.662 437.353 367.257C437.211 373.662 435.645 379.641 432.511 384.907ZM435.217 351.884C435.36 352.454 435.502 352.881 435.645 353.45C435.502 353.023 435.36 352.454 435.217 351.884ZM436.926 359.998C437.211 362.418 437.353 364.98 437.353 367.257C437.353 364.837 437.211 362.418 436.926 359.998Z" fill="url(#paint54_radial_1_12)"/>
<path d="M417.277 407.254C416.992 407.681 416.707 407.967 416.422 408.394C416.707 407.967 416.992 407.681 417.277 407.254Z" fill="url(#paint55_radial_1_12)"/>
<path d="M442.761 364.695C442.476 365.407 442.191 365.976 441.906 366.688C442.191 366.119 442.476 365.407 442.761 364.695C442.761 364.838 442.761 364.838 442.761 364.695Z" fill="url(#paint56_radial_1_12)"/>
<path d="M442.479 365.264C442.195 365.975 441.91 366.687 441.625 367.399C441.91 366.687 442.195 365.975 442.479 365.264Z" fill="url(#paint57_radial_1_12)"/>
<path d="M413.136 280.715C411.569 286.266 409.576 291.675 407.297 296.799C436.919 317.581 449.879 345.053 442.473 365.265C442.758 364.411 443.185 363.557 443.47 362.703C443.328 363.415 443.043 363.984 442.758 364.696C445.179 358.717 447.885 351.316 449.879 345.622L451.445 340.213C452.015 338.505 452.585 335.658 452.442 331.957C452.3 320.57 446.176 301.07 412.851 281.284C446.176 301.212 452.3 320.57 452.442 331.957C452.87 306.051 425.668 287.832 413.136 280.715Z" fill="url(#paint58_radial_1_12)"/>
<path d="M417.699 252.104C417.414 258.224 416.559 264.202 415.562 270.038C439.488 281.283 453.587 296.941 456.008 311.886C456.436 314.591 456.436 317.295 456.151 320.285C456.151 320.712 456.008 320.996 456.008 321.423L456.151 320.285V320.427L457.717 310.605C458.287 306.762 458.714 301.78 458.999 297.368C458.999 297.51 458.999 297.51 458.999 297.652C459.141 296.371 459.284 295.09 459.284 293.809V293.952C459.284 293.525 459.284 293.24 459.426 292.813C459.426 292.671 459.426 292.528 459.426 292.386C459.854 281.283 452.875 265.484 417.699 252.388C452.875 265.484 459.854 281.283 459.426 292.386C459.426 292.244 459.426 291.959 459.426 291.817C460.423 277.155 445.47 261.64 417.699 252.104Z" fill="url(#paint59_radial_1_12)"/>
<path d="M459.425 294.236C459.283 295.375 459.283 296.514 459.141 297.652C459.283 296.514 459.283 295.375 459.425 294.236Z" fill="url(#paint60_radial_1_12)"/>
<path d="M457.297 244.274C455.588 233.457 441.061 224.631 416.281 221.5C416.281 221.642 416.281 221.927 416.424 222.069C440.634 225.201 455.018 233.741 457.297 244.274Z" fill="url(#paint61_radial_1_12)"/>
<path d="M458.008 249.684C458.15 251.534 458.435 253.527 458.577 255.377C458.435 253.527 458.15 251.534 458.008 249.684Z" fill="url(#paint62_radial_1_12)"/>
<path d="M459.716 272.459C459.716 272.601 459.716 272.886 459.858 273.028C459.574 267.761 459.146 261.498 458.577 255.378C458.577 255.378 458.577 255.378 458.577 255.52C458.434 253.527 458.149 251.535 458.007 249.542C457.865 248.118 457.722 246.553 457.58 245.272C457.58 244.845 457.437 244.56 457.295 244.133C454.874 233.6 440.632 225.202 416.422 221.928C417.134 227.194 417.561 232.176 417.846 237.3C417.846 238.439 417.988 239.436 417.988 240.574C441.202 246.695 455.586 257.086 459.004 268.615C459.004 268.758 459.146 268.9 459.146 269.042C459.146 269.185 459.289 269.469 459.289 269.612C459.431 270.039 459.431 270.466 459.574 270.75C459.574 270.893 459.574 271.035 459.716 271.178C459.858 272.032 459.858 272.886 460.001 273.74C459.858 273.455 459.716 273.028 459.716 272.459Z" fill="url(#paint63_radial_1_12)"/>
<path d="M408.734 189.475C408.734 189.617 408.877 189.902 408.877 190.044C414.858 189.617 429.527 188.479 438.926 191.895C439.781 192.18 440.493 192.464 441.205 192.891C440.493 192.464 439.781 192.18 438.926 191.895C429.669 188.479 415.001 189.617 408.877 190.044C410.871 196.307 412.722 202.57 414.004 208.691C414.004 208.833 414.146 209.118 414.146 209.26C435.081 210.114 448.468 215.381 452.883 222.925C453.31 223.779 453.737 224.491 454.022 225.345C454.165 225.63 454.165 225.914 454.307 226.341C454.165 225.914 454.165 225.487 454.022 225.06C454.022 225.203 454.022 225.345 454.165 225.345C454.165 225.203 454.022 225.06 454.022 224.918C454.022 224.918 454.022 224.918 454.022 225.06C453.595 223.21 453.168 221.359 452.598 219.367C452.598 219.367 452.598 219.367 452.598 219.509C451.316 214.527 449.75 209.118 448.611 204.705L446.617 198.3L448.611 204.705C449.75 209.118 451.316 214.527 452.598 219.509C451.316 214.527 450.035 209.118 448.753 204.705L446.332 197.446C443.911 192.749 437.502 186.913 408.734 189.475Z" fill="url(#paint64_radial_1_12)"/>
<path d="M401.467 171.254C399.473 166.842 397.337 162.287 394.916 157.875C408.018 153.035 417.275 150.757 422.402 150.9C417.275 150.757 408.018 153.035 394.916 157.875C397.337 162.429 399.616 166.984 401.609 171.682C401.609 171.539 401.609 171.397 401.467 171.254C402.321 172.963 403.033 174.813 403.746 176.521C403.888 176.663 403.888 176.948 404.03 177.09C412.575 175.525 435.504 171.254 439.634 179.795L435.504 170.258C433.937 166.7 431.801 162.572 429.807 158.586C429.095 157.163 428.526 155.882 427.814 154.601C427.814 154.601 427.814 154.601 427.814 154.458C427.386 153.747 427.102 153.035 426.817 152.323C426.817 152.181 426.674 152.181 426.674 152.039C426.532 151.896 426.532 151.612 426.389 151.469C424.681 148.195 413.715 149.761 394.773 157.02C397.194 162.002 399.473 166.557 401.467 171.254Z" fill="url(#paint65_radial_1_12)"/>
<path d="M195.107 134.248C195.107 134.105 195.107 133.963 195.107 133.82C194.964 133.963 194.964 134.105 195.107 134.248Z" fill="url(#paint66_radial_1_12)"/>
<path d="M170.893 74.179C170.893 74.0367 170.893 74.0367 170.893 74.179C170.893 74.0367 170.893 74.0367 170.893 74.179C170.608 73.752 170.323 73.4673 170.181 73.1827C168.187 74.7484 166.336 76.3141 164.484 78.0222C194.391 112.469 200.373 155.313 178.726 175.525L179.295 175.098C179.153 175.241 179.011 175.383 178.868 175.525L179.295 175.098L179.438 174.956C179.58 174.814 179.865 174.671 180.008 174.529C180.15 174.387 180.292 174.387 180.435 174.244C180.15 174.529 179.723 174.814 179.438 175.098C179.723 174.956 179.865 174.671 180.15 174.671C180.435 174.387 180.862 174.102 181.147 173.96L181.574 173.817C181.574 173.817 181.574 173.817 181.717 173.817C181.574 173.96 181.289 173.96 181.147 174.102L181.717 173.817C182.001 173.675 182.429 173.533 182.856 173.39C183.141 173.248 183.426 173.248 183.71 173.106C184.28 172.963 184.707 172.821 185.277 172.536C188.837 171.255 192.255 169.405 195.388 166.843C219.599 147.484 223.159 98.0922 203.079 56.2441C198.949 57.5252 194.961 58.9486 190.831 60.799C189.549 61.3684 188.125 62.0801 186.843 62.6495C211.339 102.647 211.624 150.758 187.413 169.974C186.416 170.828 185.277 171.54 184.138 172.252C183.141 172.821 182.144 173.39 181.004 173.96C181.574 173.533 182.286 173.106 182.856 172.536C182.571 172.679 182.286 172.821 182.144 173.106C182.286 172.963 182.571 172.821 182.713 172.679L182.856 172.536C207.066 153.178 204.788 106.348 177.587 67.916C175.023 69.6241 172.46 71.4746 170.181 73.325C170.466 73.4673 170.608 73.752 170.893 74.179C173.029 72.3286 175.45 70.6205 177.871 69.0548C175.45 70.4782 173.029 72.1863 170.893 74.179C170.893 74.0367 170.893 74.0367 170.893 74.179C170.893 74.0367 170.893 74.0367 170.893 74.179C170.893 74.0367 170.893 74.0367 170.893 74.179C170.893 74.0367 170.893 74.0367 170.893 74.179C172.175 75.7448 173.457 77.4529 174.596 79.161C175.593 80.5844 176.59 82.0077 177.587 83.5735C175.593 80.2997 173.314 77.1682 170.893 74.179ZM191.401 61.5107C195.246 59.8026 199.091 58.3793 202.936 57.0982C208.491 68.7701 212.051 81.0114 214.045 93.1103C214.614 97.0958 215.184 101.081 215.326 105.067C215.469 107.629 215.611 110.333 215.611 112.753C215.611 110.191 215.611 107.629 215.326 105.067C215.042 101.081 214.614 97.0958 214.045 93.1103C212.193 81.1537 208.491 68.7701 202.936 57.0982C199.091 58.3793 195.246 59.945 191.401 61.5107C190.119 62.0801 188.98 62.6495 187.84 63.2188C189.122 62.6495 190.261 62.0801 191.401 61.5107ZM205.785 124.283C205.785 143.499 199.803 160.153 187.84 169.689C199.661 160.153 205.642 143.499 205.785 124.283ZM187.413 169.832C187.413 169.832 187.556 169.832 187.556 169.689C187.556 169.832 187.413 169.832 187.413 169.832ZM192.113 115.6C191.828 114.746 191.686 113.892 191.401 113.038C191.686 113.892 191.828 114.746 192.113 115.6ZM190.974 111.899C190.689 111.045 190.546 110.334 190.261 109.479C190.546 110.334 190.689 111.045 190.974 111.899ZM189.692 108.198C189.407 107.487 189.122 106.633 188.837 105.921C189.265 106.633 189.549 107.344 189.692 108.198ZM188.41 104.498C188.125 103.786 187.84 102.932 187.556 102.22C187.84 102.932 188.125 103.786 188.41 104.498ZM186.843 100.797C186.559 100.085 186.131 99.2309 185.847 98.5192C186.274 99.3733 186.559 100.085 186.843 100.797ZM185.277 97.2382C184.85 96.3841 184.565 95.6724 184.138 94.8184C184.422 95.6724 184.85 96.5265 185.277 97.2382ZM183.568 93.6797C183.141 92.8256 182.713 91.9716 182.286 91.1175C182.571 91.9716 182.998 92.8256 183.568 93.6797ZM181.574 90.2635C181.004 89.4095 180.577 88.4131 180.008 87.559C180.577 88.4131 181.147 89.4095 181.574 90.2635ZM179.723 86.8473C179.153 85.8509 178.441 84.8546 177.871 83.8582C178.441 84.8546 179.011 85.8509 179.723 86.8473ZM192.398 116.739C192.682 117.593 192.825 118.589 192.967 119.443C192.825 118.732 192.682 118.02 192.54 117.451C192.825 118.589 193.11 119.586 193.252 120.724C193.252 120.582 193.252 120.44 193.11 120.297C193.252 121.294 193.537 122.29 193.679 123.144C193.537 122.575 193.395 122.005 193.395 121.436C193.537 122.29 193.822 123.286 193.964 124.141C193.964 123.998 193.964 123.998 193.964 123.856C194.107 124.852 194.249 125.991 194.391 126.987C194.391 126.56 194.249 125.991 194.107 125.564C194.249 126.276 194.249 126.845 194.391 127.557C194.391 127.414 194.391 127.414 194.391 127.272C194.534 128.411 194.676 129.549 194.819 130.688C194.819 130.261 194.676 129.976 194.676 129.549C194.676 129.976 194.819 130.404 194.819 130.831V130.688C195.104 133.108 195.104 135.528 195.104 137.948C195.104 136.666 195.104 135.528 194.961 134.247C194.961 134.104 194.961 133.82 194.961 133.677V133.82C194.961 132.823 194.819 131.969 194.819 130.973C194.819 130.546 194.676 129.976 194.676 129.549V129.692C194.534 128.98 194.534 128.268 194.391 127.557C194.249 126.845 194.249 126.133 194.107 125.422V125.564C193.964 125.137 193.964 124.568 193.822 124.141C193.679 123.144 193.537 122.29 193.252 121.294V121.436C193.252 121.151 193.11 120.867 193.11 120.724C192.825 119.586 192.54 118.447 192.255 117.308C192.255 117.308 192.255 117.308 192.255 117.451V117.308C188.837 103.928 182.286 89.8365 172.602 76.8835C182.286 89.9788 188.837 103.928 192.255 117.308C192.398 117.024 192.398 116.881 192.398 116.739ZM165.624 78.5916C166.051 79.0186 166.336 79.4456 166.763 79.8727C166.336 79.4456 166.051 79.0186 165.624 78.5916Z" fill="url(#paint67_radial_1_12)"/>
<path d="M147.68 98.661C178.299 124.282 189.407 157.163 176.59 178.087C176.732 177.945 176.875 177.66 177.017 177.518C188.268 158.586 180.435 130.403 156.794 106.205C155.085 104.497 153.376 102.931 151.667 101.223C153.519 102.789 155.228 104.497 156.794 106.205C180.435 130.261 188.268 158.586 177.017 177.375C176.875 177.518 176.875 177.66 176.732 177.802C177.017 177.375 177.444 176.664 177.872 176.237L178.014 176.094C179.153 174.813 180.15 173.39 181.005 171.966C194.961 150.331 185.989 114.176 157.364 85.1387C153.804 89.4089 150.67 93.9638 147.68 98.661ZM148.819 98.9457C151.525 94.5331 154.516 90.4053 157.934 86.4197C154.658 90.4053 151.525 94.5331 148.819 98.9457Z" fill="url(#paint68_radial_1_12)"/>
<path d="M136.719 123.571C166.199 140.937 180.155 164.707 174.316 183.639V183.496C180.155 164.707 166.626 141.079 137.716 123.571C139.282 118.447 141.276 113.465 143.412 108.768C141.134 113.465 139.282 118.447 137.716 123.571C166.626 140.937 180.155 164.707 174.316 183.496V183.354C174.316 183.354 174.316 183.354 174.316 183.212C174.743 182.073 175.171 180.792 175.598 179.795C185.567 159.298 173.035 129.976 142.7 107.629C140.422 112.753 138.428 118.162 136.719 123.571Z" fill="url(#paint69_radial_1_12)"/>
<path d="M131.445 151.754C156.368 160.864 170.752 174.955 172.461 188.905C172.603 190.328 172.603 191.751 172.461 193.175L172.603 192.178L172.888 190.043L173.315 187.196C177.018 169.831 162.919 149.476 134.721 135.1C162.919 149.334 177.018 169.689 173.315 187.196L172.888 190.043L172.603 192.178C172.603 192.605 172.603 193.032 172.603 193.459L173.03 190.043C173.173 189.189 173.315 187.908 173.6 187.054C177.445 169.404 163.061 148.622 134.151 134.104C132.727 139.797 131.873 145.633 131.445 151.754Z" fill="url(#paint70_radial_1_12)"/>
<path d="M132.297 182.214C157.22 186.057 171.604 195.452 173.028 206.697C173.028 206.412 173.028 206.127 173.028 205.985C173.028 206.127 173.028 206.27 173.028 206.412C172.743 204.135 172.601 201.003 172.458 198.726V198.156C172.458 197.302 172.316 196.306 172.173 195.452C170.322 182.926 156.223 170.969 132.013 163.995C156.223 170.969 170.322 182.926 172.173 195.452C170.465 182.499 155.938 170.258 131.016 163.141C131.158 169.404 131.443 175.667 132.297 182.214Z" fill="url(#paint71_radial_1_12)"/>
<path d="M176.737 223.352L176.452 222.213C173.888 216.377 164.062 212.961 147.826 212.961C164.062 212.819 173.888 216.377 176.452 222.213C176.594 222.498 176.594 222.64 176.737 222.925L176.452 222.213C175.597 219.509 174.743 215.808 174.173 213.103C174.173 212.961 174.031 212.819 174.031 212.676C172.037 202.997 158.08 195.88 134.297 194.314C135.721 200.862 137.288 207.41 139.424 214.1C161.356 212.249 174.458 216.093 176.737 223.352ZM135.294 194.884C136.433 201.004 138 207.125 139.994 213.246C138.142 207.125 136.576 200.862 135.294 194.884Z" fill="url(#paint72_radial_1_12)"/>
<path d="M184.428 241.855L184.143 241.428C183.431 240.147 181.437 239.436 178.446 239.436C181.437 239.436 183.431 240.147 184.143 241.428C184.143 241.428 184.143 241.428 184.143 241.571L181.437 235.877L179.158 230.61C178.874 230.041 178.589 229.472 178.161 228.902C175.883 226.056 169.189 221.928 143.555 226.198C146.261 232.888 149.251 239.436 152.669 245.983C159.79 243.563 181.579 236.304 184.428 241.855ZM162.781 224.774C159.22 224.774 154.948 225.059 150.248 225.771C154.948 225.059 159.078 224.774 162.781 224.774ZM153.239 245.129C150.106 239.008 147.257 232.746 144.836 226.625C147.257 232.746 149.963 239.008 153.239 245.129Z" fill="url(#paint73_radial_1_12)"/>
<path d="M196.251 260.503C194.827 258.51 193.118 255.948 191.409 253.528C190.412 252.105 189.557 250.682 188.703 249.401C188.703 249.258 188.56 249.258 188.56 249.116C187.136 246.838 177.167 249.685 159.508 258.083C163.353 264.631 167.625 270.752 172.04 276.73C187.706 265.485 195.966 259.934 196.251 260.503ZM195.824 260.076C195.966 260.076 195.966 260.076 195.966 260.076C195.966 260.076 195.966 260.076 195.824 260.076ZM193.403 256.375C193.118 255.806 192.69 255.379 192.406 254.809C192.69 255.379 193.118 255.806 193.403 256.375ZM187.136 248.689C183.576 248.404 174.604 251.536 160.647 258.226C164.208 264.346 168.195 270.04 172.325 275.591C168.195 270.04 164.208 264.346 160.647 258.226C174.604 251.678 183.576 248.546 187.136 248.689Z" fill="url(#paint74_radial_1_12)"/>
<path d="M195.532 303.063C207.637 287.548 212.621 278.438 210.628 276.588L207.352 273.456C205.643 271.463 203.222 269.044 201.513 267.051C201.94 267.62 194.962 274.453 180.578 287.405C185.278 292.814 190.262 298.223 195.532 303.063ZM207.21 273.456L210.2 276.445C212.194 278.296 207.21 287.121 195.532 302.067C207.352 287.121 212.194 278.296 210.2 276.445L207.21 273.456C205.501 271.606 203.364 269.186 201.656 267.335C203.364 269.186 205.501 271.748 207.21 273.456ZM183.426 285.697C182.857 286.267 182.287 286.836 181.575 287.405C182.287 286.694 182.857 286.124 183.426 285.697Z" fill="url(#paint75_radial_1_12)"/>
<path d="M226.154 289.398C226.011 289.255 226.154 289.255 226.154 289.398C226.011 289.255 225.869 289.255 225.869 289.113C223.733 287.547 220.884 285.412 218.748 283.846L216.754 282.138C219.887 284.7 216.47 294.949 206.216 311.603C211.2 315.873 216.47 319.716 221.739 323.417C216.47 319.716 211.2 315.731 206.216 311.603C216.47 294.949 219.887 284.843 216.754 282.138L216.47 281.854C219.603 284.416 216.042 294.806 205.219 311.887C210.631 316.442 216.185 320.712 221.881 324.556C230.141 305.197 231.281 292.814 226.154 289.398Z" fill="url(#paint76_radial_1_12)"/>
<path d="M240.391 297.652C240.391 297.652 240.534 297.652 240.534 297.796C240.534 297.652 240.391 297.652 240.391 297.652Z" fill="url(#paint77_radial_1_12)"/>
<path d="M250.37 340.782C254.357 317.438 250.797 302.35 241.967 298.365C241.682 298.222 241.398 298.08 240.97 297.938C241.113 298.08 241.398 298.222 241.54 298.222C250.227 302.208 253.788 316.869 249.942 339.643C253.788 316.869 250.227 302.208 241.54 298.222C241.398 298.08 241.113 297.938 240.828 297.938C240.686 297.938 240.543 297.795 240.543 297.795C240.401 297.795 240.401 297.653 240.258 297.653C237.695 296.372 234.704 294.664 232.425 293.525C232.568 293.525 232.568 293.668 232.71 293.668C232.568 293.525 232.425 293.525 232.141 293.383C238.549 297.226 239.119 310.606 232.425 331.53C238.407 334.804 244.246 337.935 250.37 340.782Z" fill="url(#paint78_radial_1_12)"/>
<path d="M279.7 351.031C278.56 323.701 269.161 306.478 255.916 303.205L252.926 302.35L255.774 303.062C268.734 306.194 277.991 323.132 279.13 349.75C277.848 322.99 268.734 306.194 255.774 303.062L252.926 302.35C251.359 301.923 249.365 301.212 247.799 300.642C249.365 301.212 251.359 301.923 253.068 302.35C251.501 301.781 249.223 301.069 247.656 300.5C258.053 304.343 263.749 320.285 261.755 345.195C267.452 347.615 273.576 349.607 279.7 351.031Z" fill="url(#paint79_radial_1_12)"/>
<path d="M309.187 355.159C298.648 315.019 280.561 305.767 267.317 304.913C265.75 304.771 263.756 304.628 262.332 304.486L260.766 304.201C261.05 304.201 261.335 304.344 261.62 304.344L260.908 304.201C261.763 304.344 262.617 304.486 263.471 304.771C277.143 308.614 287.967 325.695 291.385 352.312C297.081 353.166 302.778 353.736 308.332 353.878C302.778 353.736 297.081 353.166 291.385 352.312C287.967 325.695 277.143 308.614 263.471 304.771C277.143 308.898 287.824 326.264 291.1 353.309C297.081 354.447 303.063 355.017 309.187 355.159Z" fill="url(#paint80_radial_1_12)"/>
<path d="M337.523 352.596C313.739 301.068 283.832 302.634 275.003 304.342C277.139 304.057 279.275 303.915 281.411 303.915C279.417 303.915 277.281 304.057 275.003 304.342H274.86C273.721 304.627 272.012 304.769 270.73 304.912C271.015 304.912 271.442 304.912 271.727 304.912C271.442 304.912 271.015 304.912 270.445 305.054C290.099 303.773 310.037 322.562 320.006 355.158C325.987 354.588 331.826 353.734 337.523 352.596Z" fill="url(#paint81_radial_1_12)"/>
<path d="M357.601 345.907C359.737 344.911 361.873 343.915 364.009 342.776C343.217 310.749 312.598 294.095 288.814 299.22C285.396 299.931 282.121 301.07 279.13 302.778L278.418 303.205C277.991 303.49 277.421 303.632 276.994 303.775C277.136 303.775 277.279 303.632 277.421 303.632C280.27 302.636 283.26 302.209 286.393 301.924C283.403 302.066 280.412 302.636 277.421 303.632C277.279 303.632 277.136 303.775 276.852 303.775C300.208 295.946 329.83 314.165 348.059 349.608C351.192 348.612 354.468 347.331 357.601 345.907ZM347.917 348.469C351.05 347.473 354.04 346.334 357.031 344.911C359.025 344.057 361.019 343.061 362.87 342.064C344.499 314.023 318.579 297.939 296.505 298.366C318.579 297.939 344.499 314.023 362.87 342.064C361.019 343.061 359.025 344.057 357.031 344.911C354.04 346.334 351.05 347.473 347.917 348.469Z" fill="url(#paint82_radial_1_12)"/>
<defs>
<radialGradient id="paint0_radial_1_12" cx="0" cy="0" r="1" gradientUnits="userSpaceOnUse" gradientTransform="translate(350.445 221.408) rotate(93.2165) scale(41.4373 74.1377)">
<stop stop-color="white"/>
<stop offset="1" stop-color="white"/>
</radialGradient>
<radialGradient id="paint1_radial_1_12" cx="0" cy="0" r="1" gradientUnits="userSpaceOnUse" gradientTransform="translate(285.633 257.842) rotate(90.4492) scale(0.241777 0.0605298)">
<stop stop-color="white"/>
<stop offset="1" stop-color="white"/>
</radialGradient>
<radialGradient id="paint2_radial_1_12" cx="0" cy="0" r="1" gradientUnits="userSpaceOnUse" gradientTransform="translate(266.787 220.448) rotate(91.2388) scale(2.33476 1.61174)">
<stop stop-color="white"/>
<stop offset="1" stop-color="white"/>
</radialGradient>
<radialGradient id="paint3_radial_1_12" cx="0" cy="0" r="1" gradientUnits="userSpaceOnUse" gradientTransform="translate(312.436 151.597) rotate(92.0204) scale(59.849 67.3446)">
<stop stop-color="white"/>
<stop offset="1" stop-color="white"/>
</radialGradient>
<radialGradient id="paint4_radial_1_12" cx="0" cy="0" r="1" gradientUnits="userSpaceOnUse" gradientTransform="translate(250.602 187.544) rotate(93.2162) scale(9.35716 16.7396)">
<stop stop-color="white"/>
<stop offset="1" stop-color="white"/>
</radialGradient>
<radialGradient id="paint5_radial_1_12" cx="0" cy="0" r="1" gradientUnits="userSpaceOnUse" gradientTransform="translate(270.845 118.498) rotate(91.5011) scale(66.9603 56.0018)">
<stop stop-color="white"/>
<stop offset="1" stop-color="white"/>
</radialGradient>
<radialGradient id="paint6_radial_1_12" cx="0" cy="0" r="1" gradientUnits="userSpaceOnUse" gradientTransform="translate(240.373 180.564) rotate(94.6628) scale(5.09175 13.1756)">
<stop stop-color="white"/>
<stop offset="1" stop-color="white"/>
</radialGradient>
<radialGradient id="paint7_radial_1_12" cx="0" cy="0" r="1" gradientUnits="userSpaceOnUse" gradientTransform="translate(334.76 310.3) rotate(93.9527) scale(27.1303 59.5868)">
<stop stop-color="white"/>
<stop offset="1" stop-color="white"/>
</radialGradient>
<radialGradient id="paint8_radial_1_12" cx="0" cy="0" r="1" gradientUnits="userSpaceOnUse" gradientTransform="translate(344.207 295.704) rotate(95.1796) scale(23.5394 67.5929)">
<stop stop-color="white"/>
<stop offset="1" stop-color="white"/>
</radialGradient>
<radialGradient id="paint9_radial_1_12" cx="0" cy="0" r="1" gradientUnits="userSpaceOnUse" gradientTransform="translate(350.624 277.454) rotate(96.7966) scale(19.1938 72.0354)">
<stop stop-color="white"/>
<stop offset="1" stop-color="white"/>
</radialGradient>
<radialGradient id="paint10_radial_1_12" cx="0" cy="0" r="1" gradientUnits="userSpaceOnUse" gradientTransform="translate(354.158 263.645) rotate(95.1927) scale(25.5718 73.6122)">
<stop stop-color="white"/>
<stop offset="1" stop-color="white"/>
</radialGradient>
<radialGradient id="paint11_radial_1_12" cx="0" cy="0" r="1" gradientUnits="userSpaceOnUse" gradientTransform="translate(354.172 245.196) rotate(94.0694) scale(32.6118 73.7265)">
<stop stop-color="white"/>
<stop offset="1" stop-color="white"/>
</radialGradient>
<radialGradient id="paint12_radial_1_12" cx="0" cy="0" r="1" gradientUnits="userSpaceOnUse" gradientTransform="translate(341.254 195.423) rotate(92.6544) scale(49.4741 73.0961)">
<stop stop-color="white"/>
<stop offset="1" stop-color="white"/>
</radialGradient>
<radialGradient id="paint13_radial_1_12" cx="0" cy="0" r="1" gradientUnits="userSpaceOnUse" gradientTransform="translate(329.984 174.516) rotate(92.3286) scale(54.8592 71.1298)">
<stop stop-color="white"/>
<stop offset="1" stop-color="white"/>
</radialGradient>
<radialGradient id="paint14_radial_1_12" cx="0" cy="0" r="1" gradientUnits="userSpaceOnUse" gradientTransform="translate(302.774 128.371) rotate(91.5523) scale(58.1353 50.2796)">
<stop stop-color="white"/>
<stop offset="1" stop-color="white"/>
</radialGradient>
<radialGradient id="paint15_radial_1_12" cx="0" cy="0" r="1" gradientUnits="userSpaceOnUse" gradientTransform="translate(249.015 109.022) rotate(91.2504) scale(68.7004 47.8685)">
<stop stop-color="white"/>
<stop offset="1" stop-color="white"/>
</radialGradient>
<radialGradient id="paint16_radial_1_12" cx="0" cy="0" r="1" gradientUnits="userSpaceOnUse" gradientTransform="translate(228.46 104.392) rotate(90.9916) scale(68.7823 38.0093)">
<stop stop-color="white"/>
<stop offset="1" stop-color="white"/>
</radialGradient>
<radialGradient id="paint17_radial_1_12" cx="0" cy="0" r="1" gradientUnits="userSpaceOnUse" gradientTransform="translate(211.751 103.977) rotate(90.7507) scale(68.4226 28.6275)">
<stop stop-color="white"/>
<stop offset="1" stop-color="white"/>
</radialGradient>
<radialGradient id="paint18_radial_1_12" cx="0" cy="0" r="1" gradientUnits="userSpaceOnUse" gradientTransform="translate(400.867 131.689) rotate(92.2179) scale(19.369 23.922)">
<stop stop-color="white"/>
<stop offset="1" stop-color="white"/>
</radialGradient>
<radialGradient id="paint19_radial_1_12" cx="0" cy="0" r="1" gradientUnits="userSpaceOnUse" gradientTransform="translate(381.717 109.281) rotate(91.8912) scale(12.1607 12.8105)">
<stop stop-color="white"/>
<stop offset="1" stop-color="white"/>
</radialGradient>
<radialGradient id="paint20_radial_1_12" cx="0" cy="0" r="1" gradientUnits="userSpaceOnUse" gradientTransform="translate(374.415 97.2822) rotate(91.5635) scale(23.5924 20.5513)">
<stop stop-color="white"/>
<stop offset="1" stop-color="white"/>
</radialGradient>
<radialGradient id="paint21_radial_1_12" cx="0" cy="0" r="1" gradientUnits="userSpaceOnUse" gradientTransform="translate(344.802 69.1768) rotate(91.1199) scale(27.2109 16.9821)">
<stop stop-color="white"/>
<stop offset="1" stop-color="white"/>
</radialGradient>
<radialGradient id="paint22_radial_1_12" cx="0" cy="0" r="1" gradientUnits="userSpaceOnUse" gradientTransform="translate(309.889 46.7114) rotate(91.0421) scale(29.4643 17.1109)">
<stop stop-color="white"/>
<stop offset="1" stop-color="white"/>
</radialGradient>
<radialGradient id="paint23_radial_1_12" cx="0" cy="0" r="1" gradientUnits="userSpaceOnUse" gradientTransform="translate(270.759 31.2888) rotate(91.375) scale(30.5146 23.3793)">
<stop stop-color="white"/>
<stop offset="1" stop-color="white"/>
</radialGradient>
<radialGradient id="paint24_radial_1_12" cx="0" cy="0" r="1" gradientUnits="userSpaceOnUse" gradientTransform="translate(258.878 10.28) rotate(95.3739) scale(1.13183 3.37056)">
<stop stop-color="white"/>
<stop offset="1" stop-color="white"/>
</radialGradient>
<radialGradient id="paint25_radial_1_12" cx="0" cy="0" r="1" gradientUnits="userSpaceOnUse" gradientTransform="translate(232.027 23.1684) rotate(91.9793) scale(29.9603 33.0287)">
<stop stop-color="white"/>
<stop offset="1" stop-color="white"/>
</radialGradient>
<radialGradient id="paint26_radial_1_12" cx="0" cy="0" r="1" gradientUnits="userSpaceOnUse" gradientTransform="translate(192.876 22.9548) rotate(92.6653) scale(29.9052 44.3658)">
<stop stop-color="white"/>
<stop offset="1" stop-color="white"/>
</radialGradient>
<radialGradient id="paint27_radial_1_12" cx="0" cy="0" r="1" gradientUnits="userSpaceOnUse" gradientTransform="translate(154.996 30.7236) rotate(93.2303) scale(31.2636 56.1735)">
<stop stop-color="white"/>
<stop offset="1" stop-color="white"/>
</radialGradient>
<radialGradient id="paint28_radial_1_12" cx="0" cy="0" r="1" gradientUnits="userSpaceOnUse" gradientTransform="translate(62.8516 48.1432) rotate(92.0524) scale(1.12759 1.28886)">
<stop stop-color="white"/>
<stop offset="1" stop-color="white"/>
</radialGradient>
<radialGradient id="paint29_radial_1_12" cx="0" cy="0" r="1" gradientUnits="userSpaceOnUse" gradientTransform="translate(121.943 47.2614) rotate(93.8367) scale(30.4009 64.8227)">
<stop stop-color="white"/>
<stop offset="1" stop-color="white"/>
</radialGradient>
<radialGradient id="paint30_radial_1_12" cx="0" cy="0" r="1" gradientUnits="userSpaceOnUse" gradientTransform="translate(61.6973 49.0326) rotate(92.1549) scale(0.805473 0.96659)">
<stop stop-color="white"/>
<stop offset="1" stop-color="white"/>
</radialGradient>
<radialGradient id="paint31_radial_1_12" cx="0" cy="0" r="1" gradientUnits="userSpaceOnUse" gradientTransform="translate(172.641 70.278) rotate(92.4147) scale(2.33629 3.14084)">
<stop stop-color="white"/>
<stop offset="1" stop-color="white"/>
</radialGradient>
<radialGradient id="paint32_radial_1_12" cx="0" cy="0" r="1" gradientUnits="userSpaceOnUse" gradientTransform="translate(95.1838 70.7078) rotate(94.7018) scale(27.6186 72.0601)">
<stop stop-color="white"/>
<stop offset="1" stop-color="white"/>
</radialGradient>
<radialGradient id="paint33_radial_1_12" cx="0" cy="0" r="1" gradientUnits="userSpaceOnUse" gradientTransform="translate(78.3225 104.287) rotate(94.6254) scale(29.2009 74.9603)">
<stop stop-color="white"/>
<stop offset="1" stop-color="white"/>
</radialGradient>
<radialGradient id="paint34_radial_1_12" cx="0" cy="0" r="1" gradientUnits="userSpaceOnUse" gradientTransform="translate(69.4954 144.7) rotate(93.942) scale(34.1799 74.8665)">
<stop stop-color="white"/>
<stop offset="1" stop-color="white"/>
</radialGradient>
<radialGradient id="paint35_radial_1_12" cx="0" cy="0" r="1" gradientUnits="userSpaceOnUse" gradientTransform="translate(0.776855 179.275) rotate(90.1797) scale(0.804907 0.0806042)">
<stop stop-color="white"/>
<stop offset="1" stop-color="white"/>
</radialGradient>
<radialGradient id="paint36_radial_1_12" cx="0" cy="0" r="1" gradientUnits="userSpaceOnUse" gradientTransform="translate(68.2014 188.157) rotate(93.3493) scale(39.9601 74.433)">
<stop stop-color="white"/>
<stop offset="1" stop-color="white"/>
</radialGradient>
<radialGradient id="paint37_radial_1_12" cx="0" cy="0" r="1" gradientUnits="userSpaceOnUse" gradientTransform="translate(74.0564 228.986) rotate(92.9636) scale(45.9546 75.7779)">
<stop stop-color="white"/>
<stop offset="1" stop-color="white"/>
</radialGradient>
<radialGradient id="paint38_radial_1_12" cx="0" cy="0" r="1" gradientUnits="userSpaceOnUse" gradientTransform="translate(87.6319 267.33) rotate(92.5397) scale(53.5787 75.7509)">
<stop stop-color="white"/>
<stop offset="1" stop-color="white"/>
</radialGradient>
<radialGradient id="paint39_radial_1_12" cx="0" cy="0" r="1" gradientUnits="userSpaceOnUse" gradientTransform="translate(108.474 303.97) rotate(92.2407) scale(59.2056 73.8705)">
<stop stop-color="white"/>
<stop offset="1" stop-color="white"/>
</radialGradient>
<radialGradient id="paint40_radial_1_12" cx="0" cy="0" r="1" gradientUnits="userSpaceOnUse" gradientTransform="translate(116.796 314.5) rotate(92.3377) scale(49.3816 64.2761)">
<stop stop-color="white"/>
<stop offset="1" stop-color="white"/>
</radialGradient>
<radialGradient id="paint41_radial_1_12" cx="0" cy="0" r="1" gradientUnits="userSpaceOnUse" gradientTransform="translate(134.94 337.306) rotate(91.9724) scale(64.2362 70.5689)">
<stop stop-color="white"/>
<stop offset="1" stop-color="white"/>
</radialGradient>
<radialGradient id="paint42_radial_1_12" cx="0" cy="0" r="1" gradientUnits="userSpaceOnUse" gradientTransform="translate(165.48 364.383) rotate(91.7473) scale(67.7918 65.9855)">
<stop stop-color="white"/>
<stop offset="1" stop-color="white"/>
</radialGradient>
<radialGradient id="paint43_radial_1_12" cx="0" cy="0" r="1" gradientUnits="userSpaceOnUse" gradientTransform="translate(198.988 385.758) rotate(91.5404) scale(70.0404 60.1102)">
<stop stop-color="white"/>
<stop offset="1" stop-color="white"/>
</radialGradient>
<radialGradient id="paint44_radial_1_12" cx="0" cy="0" r="1" gradientUnits="userSpaceOnUse" gradientTransform="translate(162.983 450.563) rotate(93.5032) scale(3.38693 6.59732)">
<stop stop-color="white"/>
<stop offset="1" stop-color="white"/>
</radialGradient>
<radialGradient id="paint45_radial_1_12" cx="0" cy="0" r="1" gradientUnits="userSpaceOnUse" gradientTransform="translate(234.964 400.213) rotate(91.3352) scale(70.693 52.5931)">
<stop stop-color="white"/>
<stop offset="1" stop-color="white"/>
</radialGradient>
<radialGradient id="paint46_radial_1_12" cx="0" cy="0" r="1" gradientUnits="userSpaceOnUse" gradientTransform="translate(274.376 407.539) rotate(91.1643) scale(69.4775 45.0789)">
<stop stop-color="white"/>
<stop offset="1" stop-color="white"/>
</radialGradient>
<radialGradient id="paint47_radial_1_12" cx="0" cy="0" r="1" gradientUnits="userSpaceOnUse" gradientTransform="translate(316.23 406.647) rotate(90.9744) scale(69.7952 37.903)">
<stop stop-color="white"/>
<stop offset="1" stop-color="white"/>
</radialGradient>
<radialGradient id="paint48_radial_1_12" cx="0" cy="0" r="1" gradientUnits="userSpaceOnUse" gradientTransform="translate(359.135 397.03) rotate(90.7547) scale(69.8717 29.3887)">
<stop stop-color="white"/>
<stop offset="1" stop-color="white"/>
</radialGradient>
<radialGradient id="paint49_radial_1_12" cx="0" cy="0" r="1" gradientUnits="userSpaceOnUse" gradientTransform="translate(332.135 466.778) rotate(94.3036) scale(0.403589 0.964528)">
<stop stop-color="white"/>
<stop offset="1" stop-color="white"/>
</radialGradient>
<radialGradient id="paint50_radial_1_12" cx="0" cy="0" r="1" gradientUnits="userSpaceOnUse" gradientTransform="translate(394.91 377.173) rotate(90.6405) scale(64.9597 23.1916)">
<stop stop-color="white"/>
<stop offset="1" stop-color="white"/>
</radialGradient>
<radialGradient id="paint51_radial_1_12" cx="0" cy="0" r="1" gradientUnits="userSpaceOnUse" gradientTransform="translate(379.631 442.624) rotate(92.4687) scale(0.644535 0.885846)">
<stop stop-color="white"/>
<stop offset="1" stop-color="white"/>
</radialGradient>
<radialGradient id="paint52_radial_1_12" cx="0" cy="0" r="1" gradientUnits="userSpaceOnUse" gradientTransform="translate(378.787 443.113) rotate(92.5933) scale(0.72515 1.04682)">
<stop stop-color="white"/>
<stop offset="1" stop-color="white"/>
</radialGradient>
<radialGradient id="paint53_radial_1_12" cx="0" cy="0" r="1" gradientUnits="userSpaceOnUse" gradientTransform="translate(385.614 381.062) rotate(90.3938) scale(61.496 13.4999)">
<stop stop-color="white"/>
<stop offset="1" stop-color="white"/>
</radialGradient>
<radialGradient id="paint54_radial_1_12" cx="0" cy="0" r="1" gradientUnits="userSpaceOnUse" gradientTransform="translate(416.172 350.954) rotate(90.7756) scale(58.4413 25.2614)">
<stop stop-color="white"/>
<stop offset="1" stop-color="white"/>
</radialGradient>
<radialGradient id="paint55_radial_1_12" cx="0" cy="0" r="1" gradientUnits="userSpaceOnUse" gradientTransform="translate(416.865 407.749) rotate(91.3472) scale(0.644939 0.484124)">
<stop stop-color="white"/>
<stop offset="1" stop-color="white"/>
</radialGradient>
<radialGradient id="paint56_radial_1_12" cx="0" cy="0" r="1" gradientUnits="userSpaceOnUse" gradientTransform="translate(442.349 365.561) rotate(90.7699) scale(1.12696 0.483596)">
<stop stop-color="white"/>
<stop offset="1" stop-color="white"/>
</radialGradient>
<radialGradient id="paint57_radial_1_12" cx="0" cy="0" r="1" gradientUnits="userSpaceOnUse" gradientTransform="translate(442.067 366.191) rotate(90.7186) scale(1.20745 0.483602)">
<stop stop-color="white"/>
<stop offset="1" stop-color="white"/>
</radialGradient>
<radialGradient id="paint58_radial_1_12" cx="0" cy="0" r="1" gradientUnits="userSpaceOnUse" gradientTransform="translate(430.681 317.454) rotate(90.9592) scale(47.8179 25.561)">
<stop stop-color="white"/>
<stop offset="1" stop-color="white"/>
</radialGradient>
<radialGradient id="paint59_radial_1_12" cx="0" cy="0" r="1" gradientUnits="userSpaceOnUse" gradientTransform="translate(438.296 282.225) rotate(91.1373) scale(39.2065 24.8482)">
<stop stop-color="white"/>
<stop offset="1" stop-color="white"/>
</radialGradient>
<radialGradient id="paint60_radial_1_12" cx="0" cy="0" r="1" gradientUnits="userSpaceOnUse" gradientTransform="translate(459.288 295.721) rotate(90.1497) scale(1.93177 0.161221)">
<stop stop-color="white"/>
<stop offset="1" stop-color="white"/>
</radialGradient>
<radialGradient id="paint61_radial_1_12" cx="0" cy="0" r="1" gradientUnits="userSpaceOnUse" gradientTransform="translate(437.516 231.396) rotate(93.2304) scale(12.8989 23.1776)">
<stop stop-color="white"/>
<stop offset="1" stop-color="white"/>
</radialGradient>
<radialGradient id="paint62_radial_1_12" cx="0" cy="0" r="1" gradientUnits="userSpaceOnUse" gradientTransform="translate(458.303 252.158) rotate(90.1797) scale(3.21963 0.322417)">
<stop stop-color="white"/>
<stop offset="1" stop-color="white"/>
</radialGradient>
<radialGradient id="paint63_radial_1_12" cx="0" cy="0" r="1" gradientUnits="userSpaceOnUse" gradientTransform="translate(438.984 244.441) rotate(91.51) scale(29.3086 24.6568)">
<stop stop-color="white"/>
<stop offset="1" stop-color="white"/>
</radialGradient>
<radialGradient id="paint64_radial_1_12" cx="0" cy="0" r="1" gradientUnits="userSpaceOnUse" gradientTransform="translate(432.328 205.141) rotate(92.1816) scale(21.216 25.7752)">
<stop stop-color="white"/>
<stop offset="1" stop-color="white"/>
</radialGradient>
<radialGradient id="paint65_radial_1_12" cx="0" cy="0" r="1" gradientUnits="userSpaceOnUse" gradientTransform="translate(417.999 162.856) rotate(92.6872) scale(16.9576 25.3629)">
<stop stop-color="white"/>
<stop offset="1" stop-color="white"/>
</radialGradient>
<radialGradient id="paint66_radial_1_12" cx="0" cy="0" r="1" gradientUnits="userSpaceOnUse" gradientTransform="translate(195.055 134.006) rotate(90.4491) scale(0.24179 0.0605298)">
<stop stop-color="white"/>
<stop offset="1" stop-color="white"/>
</radialGradient>
<radialGradient id="paint67_radial_1_12" cx="0" cy="0" r="1" gradientUnits="userSpaceOnUse" gradientTransform="translate(191.212 108.075) rotate(90.7771) scale(67.4571 29.217)">
<stop stop-color="white"/>
<stop offset="1" stop-color="white"/>
</radialGradient>
<radialGradient id="paint68_radial_1_12" cx="0" cy="0" r="1" gradientUnits="userSpaceOnUse" gradientTransform="translate(168.281 125.527) rotate(90.7687) scale(52.5649 22.52)">
<stop stop-color="white"/>
<stop offset="1" stop-color="white"/>
</radialGradient>
<radialGradient id="paint69_radial_1_12" cx="0" cy="0" r="1" gradientUnits="userSpaceOnUse" gradientTransform="translate(158.59 140.657) rotate(90.9979) scale(42.9883 23.9066)">
<stop stop-color="white"/>
<stop offset="1" stop-color="white"/>
</radialGradient>
<radialGradient id="paint70_radial_1_12" cx="0" cy="0" r="1" gradientUnits="userSpaceOnUse" gradientTransform="translate(153.587 159.895) rotate(91.2936) scale(33.573 24.2)">
<stop stop-color="white"/>
<stop offset="1" stop-color="white"/>
</radialGradient>
<radialGradient id="paint71_radial_1_12" cx="0" cy="0" r="1" gradientUnits="userSpaceOnUse" gradientTransform="translate(152.766 182.067) rotate(91.7315) scale(24.6413 23.7679)">
<stop stop-color="white"/>
<stop offset="1" stop-color="white"/>
</radialGradient>
<radialGradient id="paint72_radial_1_12" cx="0" cy="0" r="1" gradientUnits="userSpaceOnUse" gradientTransform="translate(156.269 206.932) rotate(92.6226) scale(16.4372 23.9954)">
<stop stop-color="white"/>
<stop offset="1" stop-color="white"/>
</radialGradient>
<radialGradient id="paint73_radial_1_12" cx="0" cy="0" r="1" gradientUnits="userSpaceOnUse" gradientTransform="translate(164.716 233.755) rotate(93.3901) scale(12.2492 23.0934)">
<stop stop-color="white"/>
<stop offset="1" stop-color="white"/>
</radialGradient>
<radialGradient id="paint74_radial_1_12" cx="0" cy="0" r="1" gradientUnits="userSpaceOnUse" gradientTransform="translate(178.53 260.688) rotate(92.3244) scale(16.055 20.7792)">
<stop stop-color="white"/>
<stop offset="1" stop-color="white"/>
</radialGradient>
<radialGradient id="paint75_radial_1_12" cx="0" cy="0" r="1" gradientUnits="userSpaceOnUse" gradientTransform="translate(196.356 282.699) rotate(91.5193) scale(20.3712 17.2433)">
<stop stop-color="white"/>
<stop offset="1" stop-color="white"/>
</radialGradient>
<radialGradient id="paint76_radial_1_12" cx="0" cy="0" r="1" gradientUnits="userSpaceOnUse" gradientTransform="translate(217.657 300.409) rotate(91.0102) scale(24.1508 13.5958)">
<stop stop-color="white"/>
<stop offset="1" stop-color="white"/>
</radialGradient>
<radialGradient id="paint77_radial_1_12" cx="0" cy="0" r="1" gradientUnits="userSpaceOnUse" gradientTransform="translate(240.465 297.715) rotate(91.7962) scale(0.0812609 0.0813083)">
<stop stop-color="white"/>
<stop offset="1" stop-color="white"/>
</radialGradient>
<radialGradient id="paint78_radial_1_12" cx="0" cy="0" r="1" gradientUnits="userSpaceOnUse" gradientTransform="translate(242.419 313.979) rotate(90.7521) scale(26.8056 11.2362)">
<stop stop-color="white"/>
<stop offset="1" stop-color="white"/>
</radialGradient>
<radialGradient id="paint79_radial_1_12" cx="0" cy="0" r="1" gradientUnits="userSpaceOnUse" gradientTransform="translate(264.246 322.457) rotate(91.1385) scale(28.5797 18.1327)">
<stop stop-color="white"/>
<stop offset="1" stop-color="white"/>
</radialGradient>
<radialGradient id="paint80_radial_1_12" cx="0" cy="0" r="1" gradientUnits="userSpaceOnUse" gradientTransform="translate(285.834 326.344) rotate(91.7057) scale(28.8283 27.3938)">
<stop stop-color="white"/>
<stop offset="1" stop-color="white"/>
</radialGradient>
<radialGradient id="paint81_radial_1_12" cx="0" cy="0" r="1" gradientUnits="userSpaceOnUse" gradientTransform="translate(305.173 326.083) rotate(92.3413) scale(29.0986 37.9337)">
<stop stop-color="white"/>
<stop offset="1" stop-color="white"/>
</radialGradient>
<radialGradient id="paint82_radial_1_12" cx="0" cy="0" r="1" gradientUnits="userSpaceOnUse" gradientTransform="translate(321.975 320.597) rotate(93.0477) scale(29.0521 49.261)">
<stop stop-color="white"/>
<stop offset="1" stop-color="white"/>
</radialGradient>
</defs>
</svg>
