<svg width="29" height="26" viewBox="0 0 29 26" fill="none" xmlns="http://www.w3.org/2000/svg">
<path d="M25.6984 0.0566406H22.9965C22.5462 0.0566406 22.2648 0.112927 21.9271 0.169215C21.6456 0.281791 21.3642 0.394368 21.0828 0.61952C20.8576 0.844672 20.6325 1.12612 20.4636 1.52013C20.2947 1.85786 20.1259 2.36445 19.957 2.92733L14.6096 16.3239C14.5534 16.4364 14.5533 16.4364 14.4971 16.4364H14.2156C14.2156 16.4364 14.1593 16.4364 14.103 16.3239L8.75569 2.92733C8.58683 2.36445 8.41797 1.91415 8.2491 1.52013C8.08024 1.1824 7.85509 0.90096 7.62993 0.61952C7.40478 0.394368 7.06705 0.281791 6.78561 0.169215C6.50417 0.0566389 6.11016 0.0566406 5.71615 0.0566406H2.90175C1.88857 0.0566406 1.15682 0.394367 0.819097 1.01353C0.481369 1.57641 0.3125 2.53332 0.3125 3.94051V23.979C0.3125 24.9359 0.931671 25.0485 1.21311 25.0485H3.80235C4.08379 25.0485 4.64667 24.9359 4.64667 23.979V5.74173C4.64667 5.68544 4.64667 5.68544 4.64667 5.68544H4.81554C4.87182 5.68544 4.87182 5.68543 4.92811 5.79801L10.1066 18.6317C10.3318 19.2508 10.5569 19.8137 10.7258 20.264C10.9509 20.7143 11.2324 21.1083 11.4575 21.3898C11.739 21.6712 12.0767 21.9527 12.4144 22.0652C12.7521 22.1778 13.1462 22.2341 13.6527 22.2341H14.8911C15.3414 22.2341 15.7917 22.1778 16.1294 22.0652C16.4671 21.9527 16.8049 21.7275 17.0863 21.3898C17.3115 21.1083 17.5929 20.7143 17.8181 20.264C18.0432 19.8137 18.2684 19.2508 18.4372 18.6317L23.672 5.79801C23.672 5.74172 23.7283 5.74173 23.7283 5.74173H23.8972V5.79801V24.0353C23.8972 24.9922 24.5163 25.1048 24.7415 25.1048H27.3307C27.6122 25.1048 28.2313 24.9922 28.2313 24.0353V3.9968C28.2313 2.5896 28.0625 1.63271 27.7247 1.06983C27.4433 0.39437 26.7116 0.0566406 25.6984 0.0566406Z" fill="white"/>
</svg>
